<svg width="151" height="151" viewBox="0 0 151 151" fill="none" xmlns="http://www.w3.org/2000/svg">
    <g clip-path="url(#clip0_1_845)">
        <rect x="0.96582" y="0.510254" width="150" height="150" rx="32"
            fill="url(#paint0_linear_1_845)" />
        <g opacity="0.44" filter="url(#filter0_f_1_845)">
            <circle cx="97.9658" cy="456.01" r="248" fill="url(#paint1_linear_1_845)" />
        </g>
        <path
            d="M100.955 116.439C96.1091 121.136 90.8181 120.395 85.7248 118.17C80.3349 115.896 75.3899 115.797 69.7033 118.17C62.5826 121.235 58.8244 120.345 54.5718 116.439C30.4406 91.5721 34.0009 53.7024 61.3958 52.3181C68.0714 52.6642 72.7197 55.9765 76.6262 56.2732C82.4612 55.0867 88.0489 51.6754 94.2795 52.1204C101.746 52.7136 107.384 55.6799 111.092 61.0192C95.6641 70.2642 99.3233 90.5833 113.466 96.2687C110.647 103.684 106.988 111.051 100.906 116.489L100.955 116.439ZM76.1317 52.0215C75.3899 40.9968 84.3402 31.9001 94.6257 31.0103C96.0597 43.7653 83.0546 53.2574 76.1317 52.0215Z"
            fill="white" />
    </g>
    <rect x="1.31582" y="0.860254" width="149.3" height="149.3" rx="31.65"
        stroke="url(#paint2_linear_1_845)" stroke-width="0.7" />
    <defs>
        <filter id="filter0_f_1_845" x="-436.852" y="-78.8071" width="1069.63" height="1069.63"
            filterUnits="userSpaceOnUse" color-interpolation-filters="sRGB">
            <feFlood flood-opacity="0" result="BackgroundImageFix" />
            <feBlend mode="normal" in="SourceGraphic" in2="BackgroundImageFix" result="shape" />
            <feGaussianBlur stdDeviation="143.409" result="effect1_foregroundBlur_1_845" />
        </filter>
        <linearGradient id="paint0_linear_1_845" x1="2.6178" y1="0.510277" x2="168.994" y2="28.8275"
            gradientUnits="userSpaceOnUse">
            <stop stop-color="white" stop-opacity="0.1" />
            <stop offset="1" stop-color="#676767" stop-opacity="0.05" />
        </linearGradient>
        <linearGradient id="paint1_linear_1_845" x1="97.9658" y1="208.01" x2="97.9658" y2="704.01"
            gradientUnits="userSpaceOnUse">
            <stop stop-color="#B5185C" stop-opacity="0.57" />
            <stop offset="1" stop-color="#1024D7" stop-opacity="0" />
        </linearGradient>
        <linearGradient id="paint2_linear_1_845" x1="23.9614" y1="-13.8001" x2="255.508"
            y2="198.037" gradientUnits="userSpaceOnUse">
            <stop stop-color="#818181" />
            <stop offset="0.936686" stop-color="white" stop-opacity="0" />
        </linearGradient>
        <clipPath id="clip0_1_845">
            <rect x="0.96582" y="0.510254" width="150" height="150" rx="32" fill="white" />
        </clipPath>
    </defs>
</svg>
    