<svg width="135" height="135" viewBox="0 0 135 135" fill="none" xmlns="http://www.w3.org/2000/svg">
    <g opacity="0.6" filter="url(#filter0_d_1_870)">
        <path
            d="M90.0029 63.7066H91.8251V67.8753H90.0029V63.7066ZM86.4122 69.0958H88.2343V62.4861H86.4122V69.0958ZM82.8817 72.5146H84.7039V59.0673H82.8817V72.5146ZM79.5256 75.1528H81.3477V56.5522H79.5256V75.1483V75.1528ZM75.9325 70.6104H77.7547V60.9715H75.9325V70.6104ZM72.2825 77.9038H74.1047V53.2656H72.2768V77.9038H72.2825ZM68.6907 81.4364H70.5128V50.1455H68.6907V81.4364ZM65.1602 76.6056H66.9824V54.9762H65.1602V76.6057V76.6056ZM61.5079 70.4633H63.3301V61.3464H61.5079V70.4633ZM57.9776 68.2899H59.7998V63.2839H57.9776V68.2982V68.2899ZM54.4472 70.9681H56.2693V60.6102H54.4472V70.9715V70.9681ZM50.9737 75.9822H52.7958V55.007H50.9738V75.9859L50.9737 75.9822ZM47.4433 72.7778H49.2655V58.624H47.4433V72.7813V72.7778ZM43.8457 69.0958H45.6679V62.4861H43.8457V69.0958Z"
            fill="white" />
    </g>
    <g opacity="0.4">
        <path d="M68.4828 127.289H67.4484V120.37H64.306V119.335H68.4828V127.289Z" fill="white" />
        <path d="M60.4155 119.052L59.3773 126.938L58.3518 126.803L59.3899 118.917L60.4155 119.052Z"
            fill="white" />
        <path
            d="M54.9188 120.57L53.9196 120.303C54.0156 119.945 53.9778 119.608 53.8064 119.292C53.6287 118.975 53.367 118.77 53.0213 118.678C52.6757 118.585 52.3498 118.633 52.0436 118.82C51.7312 119.006 51.527 119.278 51.431 119.636C51.367 119.875 51.372 120.095 51.4459 120.297C51.5119 120.503 51.6257 120.682 51.7873 120.833C51.9489 120.984 52.131 121.133 52.3336 121.282C52.5363 121.431 52.7396 121.59 52.9435 121.759C53.1394 121.932 53.3131 122.114 53.4646 122.302C53.6144 122.498 53.7161 122.734 53.7699 123.011C53.8156 123.292 53.7939 123.6 53.7047 123.933C53.5615 124.467 53.2509 124.872 52.7728 125.148C52.2868 125.429 51.7735 125.497 51.2331 125.352C50.6926 125.207 50.2852 124.892 50.0109 124.408C49.7286 123.928 49.659 123.421 49.8021 122.887L50.8107 123.157C50.7417 123.415 50.777 123.66 50.9167 123.893C51.0485 124.13 51.2431 124.284 51.5008 124.353C51.7647 124.423 52.0131 124.389 52.2459 124.249C52.4769 124.116 52.627 123.92 52.696 123.663C52.7718 123.38 52.725 123.115 52.5555 122.867C52.3844 122.626 52.1609 122.404 51.885 122.202C51.6011 122.005 51.3253 121.79 51.0578 121.557C50.7823 121.328 50.5776 121.024 50.4435 120.644C50.3077 120.271 50.3038 119.846 50.4318 119.368C50.6019 118.733 50.9675 118.249 51.5286 117.914C52.0818 117.584 52.6695 117.503 53.2916 117.669C53.9137 117.836 54.385 118.201 54.7053 118.765C55.0177 119.334 55.0889 119.936 54.9188 120.57Z"
            fill="white" />
        <path
            d="M43.2815 122.608L43.4941 114.087L44.522 114.513L44.4599 116.78L47.5254 118.049L49.0841 116.403L50.1119 116.829L44.2372 123.004L43.2815 122.608ZM44.4337 117.889L44.3494 121.382L46.7599 118.852L44.4337 117.889Z"
            fill="white" />
        <path
            d="M34.7672 108.607C34.9314 108.585 35.0806 108.626 35.2148 108.729C35.349 108.832 35.4269 108.965 35.4485 109.129C35.4701 109.294 35.4295 109.443 35.3265 109.577C35.2235 109.711 35.0899 109.789 34.9257 109.811C34.7615 109.832 34.6123 109.792 34.4781 109.689C34.3439 109.586 34.266 109.452 34.2444 109.288C34.2228 109.124 34.2635 108.975 34.3664 108.84C34.4694 108.706 34.603 108.628 34.7672 108.607Z"
            fill="white" />
        <path
            d="M20.683 105.681L20.0532 104.861L25.5425 100.649L23.6295 98.1555L24.4502 97.5258L26.9929 100.839L20.683 105.681Z"
            fill="white" />
        <path d="M22.3502 94.1801L15.4623 98.1568L14.945 97.261L21.833 93.2842L22.3502 94.1801Z"
            fill="white" />
        <path
            d="M17.7991 90.7447L17.4032 89.789C17.7458 89.6471 17.99 89.4122 18.1359 89.0842C18.2792 88.7502 18.2824 88.4179 18.1455 88.0873C18.0085 87.7567 17.7725 87.527 17.4375 87.3982C17.1 87.2633 16.7599 87.2669 16.4173 87.4088C16.1889 87.5034 16.0172 87.6414 15.9022 87.8228C15.7787 88.0007 15.7062 88.1998 15.6848 88.4199C15.6633 88.6401 15.6553 88.8758 15.6608 89.127C15.6662 89.3783 15.6639 89.6363 15.6539 89.901C15.6353 90.1622 15.5973 90.4103 15.5397 90.6454C15.4762 90.883 15.3508 91.1075 15.1637 91.3188C14.9681 91.5265 14.711 91.6964 14.3924 91.8284C13.8815 92.04 13.3711 92.0402 12.861 91.8289C12.3425 91.6141 11.9762 91.2483 11.7621 90.7314C11.548 90.2144 11.5495 89.6997 11.7668 89.1872C11.9756 88.6712 12.3354 88.3073 12.8463 88.0957L13.2459 89.0604C12.9995 89.1625 12.8265 89.3398 12.7268 89.5923C12.6187 89.8413 12.6157 90.0891 12.7178 90.3355C12.8223 90.5879 13.0009 90.764 13.2534 90.8636C13.4999 90.9657 13.7464 90.9657 13.9928 90.8636C14.2633 90.7516 14.4452 90.5531 14.5383 90.268C14.6255 89.9854 14.6652 89.6732 14.6574 89.3314C14.6411 88.986 14.6441 88.6362 14.6664 88.2819C14.6801 87.9241 14.7967 87.5766 15.0161 87.2392C15.2295 86.9043 15.5646 86.6423 16.0214 86.4531C16.6285 86.2016 17.2356 86.1966 17.8426 86.4381C18.4412 86.6761 18.8637 87.0926 19.1102 87.6877C19.3567 88.2827 19.3537 88.879 19.1012 89.4765C18.8402 90.0705 18.4062 90.4933 17.7991 90.7447Z"
            fill="white" />
        <path
            d="M9.10005 82.7528L15.9895 77.7344L16.2774 78.809L14.4415 80.1395L15.3003 83.3445L17.5555 83.5788L17.8434 84.6534L9.36778 83.752L9.10005 82.7528ZM13.5459 80.7937L10.7233 82.8533L14.1975 83.2257L13.5459 80.7937Z"
            fill="white" />
        <path
            d="M15.025 67.5246C15.1421 67.6417 15.2007 67.7848 15.2007 67.954C15.2007 68.1232 15.1421 68.2663 15.025 68.3834C14.9079 68.5005 14.7648 68.5591 14.5956 68.5591C14.4265 68.5591 14.2833 68.5005 14.1662 68.3834C14.0491 68.2663 13.9906 68.1232 13.9906 67.954C13.9906 67.7848 14.0491 67.6417 14.1662 67.5246C14.2833 67.4075 14.4265 67.3489 14.5956 67.3489C14.7648 67.3489 14.9079 67.4075 15.025 67.5246Z"
            fill="white" />
        <path
            d="M8.77167 54.5198L9.0394 53.5206L15.7227 55.3114L16.536 52.2761L17.5352 52.5438L16.4542 56.5783L8.77167 54.5198Z"
            fill="white" />
        <path d="M18.9107 48.8404L11.5626 45.7967L11.9585 44.841L19.3066 47.8847L18.9107 48.8404Z"
            fill="white" />
        <path
            d="M18.8671 43.1389L19.3843 42.243C19.7055 42.4285 20.0406 42.4792 20.3895 42.3952C20.7418 42.3056 21.0074 42.1058 21.1863 41.7959C21.3652 41.486 21.4038 41.159 21.302 40.8148C21.2035 40.4649 20.9937 40.1973 20.6725 40.0118C20.4584 39.8882 20.2444 39.836 20.0305 39.8553C19.8141 39.8656 19.6121 39.9292 19.4244 40.0462C19.2366 40.1632 19.0448 40.3003 18.8488 40.4576C18.6528 40.6149 18.4467 40.7702 18.2306 40.9233C18.0121 41.0676 17.792 41.1885 17.5705 41.286C17.3433 41.3802 17.0889 41.4174 16.8074 41.3976C16.5235 41.3689 16.2322 41.2683 15.9336 41.0959C15.4547 40.8194 15.1438 40.4145 15.0009 39.8813C14.8556 39.3392 14.9229 38.8258 15.2026 38.3413C15.4824 37.8567 15.8917 37.5446 16.4306 37.405C16.9671 37.2565 17.4748 37.3205 17.9537 37.597L17.4316 38.5013C17.2006 38.3679 16.9546 38.3386 16.6936 38.4133C16.4302 38.4791 16.2319 38.6275 16.0985 38.8585C15.9619 39.0951 15.9309 39.3439 16.0056 39.6049C16.0746 39.8627 16.2247 40.0582 16.4557 40.1916C16.7092 40.338 16.9774 40.3614 17.2603 40.2617C17.5376 40.1589 17.8094 40.0003 18.0759 39.786C18.3399 39.5629 18.6193 39.3523 18.9139 39.1543C19.2061 38.9474 19.5529 38.8283 19.9541 38.797C20.3496 38.7624 20.7615 38.8688 21.1897 39.116C21.7588 39.4445 22.1323 39.9231 22.3103 40.5517C22.4859 41.1715 22.4126 41.7602 22.0906 42.318C21.7685 42.8758 21.2936 43.2364 20.6659 43.3999C20.0358 43.5544 19.4362 43.4674 18.8671 43.1389Z"
            fill="white" />
        <path
            d="M19.9113 31.3717L28.0867 33.7824L27.4094 34.6651L25.2363 34.0185L23.2164 36.6509L24.4034 38.5826L23.7261 39.4653L19.2816 32.1924L19.9113 31.3717ZM24.172 33.7062L20.8197 32.7207L22.6393 35.7037L24.172 33.7062Z"
            fill="white" />
        <path
            d="M35.6383 26.7705C35.6167 26.9347 35.5388 27.0683 35.4046 27.1713C35.2704 27.2743 35.1212 27.315 34.957 27.2933C34.7928 27.2717 34.6592 27.1938 34.5562 27.0596C34.4533 26.9254 34.4126 26.7762 34.4342 26.612C34.4558 26.4478 34.5337 26.3142 34.6679 26.2113C34.8021 26.1083 34.9513 26.0676 35.1155 26.0892C35.2797 26.1108 35.4133 26.1888 35.5163 26.323C35.6193 26.4572 35.6599 26.6063 35.6383 26.7705Z"
            fill="white" />
        <path
            d="M42.1089 13.9237L43.0647 13.5278L45.7125 19.9202L48.6156 18.7177L49.0115 19.6734L45.1526 21.2718L42.1089 13.9237Z"
            fill="white" />
        <path d="M52.7874 18.5106L50.7289 10.8281L51.7281 10.5604L53.7866 18.2429L52.7874 18.5106Z"
            fill="white" />
        <path
            d="M57.2839 15.0042L58.3095 14.8692C58.3579 15.2368 58.5217 15.5335 58.8007 15.7593C59.0863 15.9842 59.4064 16.0733 59.7612 16.0266C60.116 15.9799 60.3989 15.8114 60.61 15.5211C60.8276 15.2299 60.9122 14.9005 60.8638 14.5329C60.8316 14.2878 60.7427 14.0862 60.5972 13.9282C60.4573 13.7629 60.2838 13.6413 60.0767 13.5636C59.8696 13.4859 59.644 13.4171 59.3999 13.3574C59.1558 13.2977 58.9072 13.2287 58.6541 13.1505C58.4067 13.0649 58.1768 12.9639 57.9646 12.8475C57.7516 12.7246 57.5672 12.5455 57.4115 12.31C57.2615 12.0673 57.1639 11.775 57.1189 11.4332C57.0467 10.8849 57.1787 10.3918 57.5147 9.95379C57.8564 9.50852 58.3046 9.24937 58.8593 9.17634C59.4141 9.10331 59.9108 9.23805 60.3497 9.58057C60.7941 9.91579 61.0524 10.3575 61.1246 10.9058L60.0893 11.0421C60.0545 10.7776 59.928 10.5646 59.7099 10.403C59.4973 10.2342 59.2588 10.1671 58.9944 10.2019C58.7234 10.2376 58.5072 10.3645 58.3456 10.5826C58.1832 10.7943 58.1194 11.0324 58.1542 11.2969C58.1924 11.5871 58.3371 11.8142 58.5884 11.9779C58.8388 12.1353 59.1301 12.2544 59.4623 12.3354C59.8001 12.409 60.1372 12.5024 60.4736 12.6156C60.8157 12.7215 61.1212 12.9241 61.3903 13.2233C61.6585 13.5161 61.8249 13.9076 61.8894 14.3979C61.9752 15.0493 61.8229 15.637 61.4325 16.1609C61.0477 16.6774 60.5361 16.9778 59.8975 17.0618C59.2589 17.1459 58.6837 16.9887 58.1719 16.5901C57.6657 16.1843 57.3697 15.6557 57.2839 15.0042Z"
            fill="white" />
        <path
            d="M67.2788 8.5992L70.3431 16.5527H69.2306L68.4206 14.435H65.1026L64.2926 16.5527H63.1801L66.2444 8.5992H67.2788ZM68.0205 13.4006L66.7616 10.1411L65.5027 13.4006H68.0205Z"
            fill="white" />
        <path
            d="M80.4799 18.3464C80.3365 18.4292 80.183 18.4487 80.0197 18.405C79.8563 18.3612 79.7332 18.2676 79.6504 18.1241C79.5676 17.9807 79.548 17.8273 79.5918 17.6639C79.6356 17.5005 79.7292 17.3774 79.8726 17.2946C80.0161 17.2118 80.1695 17.1923 80.3329 17.2361C80.4962 17.2799 80.6193 17.3735 80.7022 17.5169C80.785 17.6603 80.8045 17.8137 80.7607 17.9771C80.7169 18.1405 80.6233 18.2636 80.4799 18.3464Z"
            fill="white" />
        <path
            d="M94.6109 15.6591L95.5068 16.1763L92.0473 22.1684L94.7686 23.7396L94.2514 24.6355L90.6342 22.5471L94.6109 15.6591Z"
            fill="white" />
        <path d="M97.4721 26.9227L102.314 20.6127L103.135 21.2425L98.2928 27.5524L97.4721 26.9227Z"
            fill="white" />
        <path
            d="M102.992 28.3556L103.723 29.087C103.461 29.3493 103.325 29.6598 103.316 30.0186C103.312 30.3821 103.436 30.6903 103.689 30.9433C103.942 31.1963 104.248 31.3182 104.607 31.309C104.97 31.3044 105.283 31.171 105.545 30.9088C105.72 30.734 105.826 30.5408 105.862 30.3291C105.908 30.1175 105.899 29.9059 105.835 29.6943C105.77 29.4827 105.688 29.2619 105.586 29.0318C105.485 28.8018 105.389 28.5626 105.297 28.3142C105.214 28.0657 105.154 27.8219 105.117 27.5827C105.085 27.3389 105.115 27.0836 105.207 26.8167C105.308 26.5499 105.481 26.2946 105.724 26.0508C106.115 25.6597 106.587 25.4642 107.139 25.4642C107.7 25.4642 108.179 25.662 108.574 26.0577C108.97 26.4533 109.166 26.9294 109.161 27.4861C109.166 28.0427 108.972 28.5166 108.581 28.9076L107.843 28.1693C108.032 27.9806 108.124 27.7506 108.119 27.4792C108.124 27.2078 108.032 26.9778 107.843 26.7891C107.65 26.5959 107.417 26.5016 107.146 26.5062C106.879 26.5062 106.651 26.6005 106.463 26.7891C106.256 26.9962 106.164 27.2492 106.187 27.5482C106.214 27.8426 106.297 28.1463 106.435 28.4591C106.582 28.7719 106.714 29.0962 106.829 29.4321C106.953 29.7679 106.978 30.1336 106.904 30.5293C106.835 30.9203 106.626 31.2906 106.276 31.6403C105.812 32.1049 105.253 32.3418 104.6 32.351C103.956 32.3602 103.406 32.1371 102.95 31.6817C102.495 31.2262 102.27 30.6742 102.274 30.0255C102.288 29.3769 102.527 28.8202 102.992 28.3556Z"
            fill="white" />
        <path
            d="M114.088 32.4102L109.643 39.683L108.966 38.8004L110.153 36.8686L108.133 34.2363L105.96 34.8828L105.283 34.0002L113.458 31.5895L114.088 32.4102ZM110.73 35.9215L112.55 32.9385L109.197 33.924L110.73 35.9215Z"
            fill="white" />
        <path
            d="M114.461 48.7935C114.308 48.7302 114.199 48.6203 114.134 48.464C114.069 48.3078 114.069 48.1531 114.132 48.0001C114.195 47.8471 114.305 47.7382 114.461 47.6735C114.618 47.6088 114.772 47.6081 114.925 47.6715C115.078 47.7349 115.187 47.8447 115.252 48.001C115.317 48.1572 115.317 48.3119 115.254 48.4649C115.191 48.6179 115.081 48.7268 114.925 48.7915C114.768 48.8562 114.614 48.8569 114.461 48.7935Z"
            fill="white" />
        <path
            d="M125.196 58.3676L125.331 59.3932L118.471 60.2963L118.881 63.4118L117.855 63.5469L117.31 59.4058L125.196 58.3676Z"
            fill="white" />
        <path d="M117.983 67.5783H125.936V68.6128H117.983V67.5783Z" fill="white" />
        <path
            d="M120.224 72.7459L120.089 73.7715C119.721 73.7231 119.392 73.8045 119.102 74.0156C118.811 74.2332 118.642 74.5194 118.595 74.8741C118.548 75.2289 118.638 75.5458 118.864 75.8249C119.089 76.1104 119.385 76.2774 119.753 76.3258C119.998 76.3581 120.215 76.3244 120.406 76.2248C120.602 76.1325 120.764 75.9963 120.892 75.8164C121.021 75.6365 121.146 75.4364 121.267 75.216C121.388 74.9957 121.519 74.7734 121.66 74.5492C121.806 74.3323 121.963 74.1364 122.131 73.9616C122.305 73.7876 122.525 73.6559 122.793 73.5665C123.066 73.4843 123.374 73.4658 123.716 73.5108C124.264 73.583 124.706 73.838 125.042 74.276C125.384 74.7213 125.518 75.2213 125.445 75.776C125.372 76.3307 125.114 76.7757 124.669 77.1109C124.23 77.4534 123.737 77.5886 123.189 77.5164L123.325 76.4811C123.589 76.516 123.828 76.4489 124.04 76.28C124.258 76.1185 124.385 75.9054 124.42 75.641C124.455 75.3701 124.389 75.1283 124.22 74.9158C124.057 74.7041 123.844 74.5809 123.58 74.5461C123.289 74.5078 123.033 74.5889 122.809 74.7892C122.593 74.9903 122.402 75.2408 122.238 75.5408C122.079 75.848 121.902 76.1494 121.705 76.4451C121.515 76.7481 121.24 76.9908 120.881 77.1733C120.529 77.3566 120.108 77.416 119.617 77.3514C118.966 77.2656 118.438 76.9664 118.033 76.4538C117.633 75.9484 117.476 75.3764 117.56 74.7379C117.644 74.0993 117.945 73.5844 118.462 73.1931C118.985 72.8092 119.572 72.6601 120.224 72.7459Z"
            fill="white" />
        <path
            d="M123.762 84.0171L115.286 84.9184L115.574 83.8438L117.83 83.6095L118.688 80.4046L116.852 79.0741L117.14 77.9995L124.03 83.0179L123.762 84.0171ZM118.932 83.4908L122.407 83.1184L119.584 81.0588L118.932 83.4908Z"
            fill="white" />
        <path
            d="M110.992 94.2866C110.949 94.1266 110.97 93.9733 111.054 93.8269C111.139 93.6804 111.261 93.5857 111.421 93.5428C111.581 93.5 111.734 93.5208 111.881 93.6054C112.027 93.69 112.122 93.8122 112.165 93.9722C112.208 94.1322 112.187 94.2854 112.102 94.4319C112.018 94.5784 111.895 94.6731 111.735 94.7159C111.575 94.7588 111.422 94.738 111.276 94.6534C111.129 94.5688 111.034 94.4465 110.992 94.2866Z"
            fill="white" />
        <path
            d="M109.93 108.632L109.199 109.363L104.306 104.47L102.084 106.692L101.353 105.961L104.306 103.008L109.93 108.632Z"
            fill="white" />
        <path d="M98.31 108.48L103.152 114.79L102.331 115.42L97.4894 109.11L98.31 108.48Z"
            fill="white" />
        <path
            d="M95.4979 113.441L94.602 113.958C94.4166 113.637 94.1518 113.425 93.8075 113.324C93.4577 113.225 93.1278 113.265 92.8179 113.444C92.508 113.623 92.3111 113.887 92.2271 114.236C92.1375 114.588 92.1854 114.925 92.3708 115.246C92.4944 115.46 92.6537 115.613 92.8485 115.703C93.041 115.802 93.2478 115.848 93.4689 115.84C93.69 115.833 93.9247 115.81 94.1731 115.772C94.4215 115.734 94.6775 115.702 94.9413 115.678C95.2027 115.662 95.4537 115.667 95.6943 115.694C95.9381 115.726 96.177 115.821 96.4109 115.979C96.6425 116.146 96.8445 116.378 97.0169 116.677C97.2934 117.156 97.3602 117.662 97.2173 118.195C97.072 118.737 96.7571 119.148 96.2726 119.428C95.788 119.708 95.2775 119.773 94.741 119.625C94.2021 119.485 93.7945 119.176 93.5179 118.697L94.4223 118.175C94.5556 118.406 94.754 118.554 95.0174 118.62C95.2783 118.695 95.5243 118.665 95.7554 118.532C95.992 118.395 96.1432 118.195 96.209 117.932C96.2781 117.674 96.2459 117.43 96.1126 117.199C95.9662 116.945 95.7456 116.791 95.4508 116.736C95.1593 116.686 94.8445 116.688 94.5067 116.74C94.1664 116.801 93.8192 116.844 93.465 116.868C93.1085 116.901 92.7487 116.831 92.3856 116.658C92.0257 116.49 91.7222 116.192 91.4749 115.763C91.1464 115.194 91.0622 114.593 91.2224 113.96C91.3802 113.335 91.738 112.862 92.2958 112.54C92.8536 112.218 93.4452 112.143 94.0706 112.315C94.6935 112.497 95.1693 112.872 95.4979 113.441Z"
            fill="white" />
        <path
            d="M88.71 123.109L82.8352 116.934L83.8631 116.508L85.4218 118.154L88.4873 116.885L88.4252 114.618L89.453 114.192L89.6657 122.713L88.71 123.109ZM86.1873 118.957L88.5978 121.487L88.5135 117.993L86.1873 118.957Z"
            fill="white" />
        <path
            d="M72.788 119.23C72.8889 119.098 73.0231 119.021 73.1908 118.999C73.3585 118.977 73.5081 119.017 73.6395 119.117C73.7709 119.218 73.8476 119.352 73.8697 119.52C73.8918 119.688 73.8524 119.837 73.7516 119.969C73.6508 120.1 73.5165 120.177 73.3488 120.199C73.1811 120.221 73.0315 120.182 72.9001 120.081C72.7687 119.98 72.692 119.846 72.6699 119.678C72.6478 119.51 72.6872 119.361 72.788 119.23Z"
            fill="white" />
        <circle opacity="0.9" cx="67.2643" cy="67.2711" r="45.5181" stroke="#8F7490"
            stroke-width="0.754444" />
        <circle opacity="0.9" cx="67.2644" cy="67.2712" r="66.894" stroke="#8F7490"
            stroke-width="0.754444" />
    </g>
    <defs>
        <filter id="filter0_d_1_870" x="41.5747" y="50.1455" width="52.5213" height="35.8327"
            filterUnits="userSpaceOnUse" color-interpolation-filters="sRGB">
            <feFlood flood-opacity="0" result="BackgroundImageFix" />
            <feColorMatrix in="SourceAlpha" type="matrix"
                values="0 0 0 0 0 0 0 0 0 0 0 0 0 0 0 0 0 0 127 0" result="hardAlpha" />
            <feOffset dy="2.27096" />
            <feGaussianBlur stdDeviation="1.13548" />
            <feComposite in2="hardAlpha" operator="out" />
            <feColorMatrix type="matrix" values="0 0 0 0 0 0 0 0 0 0 0 0 0 0 0 0 0 0 0.8 0" />
            <feBlend mode="normal" in2="BackgroundImageFix" result="effect1_dropShadow_1_870" />
            <feBlend mode="normal" in="SourceGraphic" in2="effect1_dropShadow_1_870" result="shape" />
        </filter>
    </defs>
</svg>