<svg width="675" height="194" viewBox="0 0 675 194" fill="none" xmlns="http://www.w3.org/2000/svg">
    <path
        d="M32.1428 161.616H128.813V194H0L32.1428 161.616ZM0 0.659775H32.1428V5.97662V117.872L0 150.257V5.97662V0.659775ZM226.984 32.5609V161.616L194.841 194V0.659775L226.984 32.5609ZM378.913 113.522H330.819C315.111 113.522 301.818 107.964 290.943 97.0882C280.068 85.9711 274.509 72.679 274.509 56.9701C274.509 41.5029 280.068 28.4524 290.943 17.3354C301.818 6.21831 315.111 0.659775 330.819 0.659775V33.0443C327.436 33.0443 324.294 33.5276 321.394 34.736C318.252 35.9444 315.836 37.6361 313.419 40.0528C311.244 42.2279 309.552 44.8863 308.344 47.7865C307.135 50.6865 306.652 53.8283 306.652 56.9701C306.652 63.737 308.827 69.2955 313.419 74.1291C318.252 78.9626 323.811 81.3793 330.819 81.3793H378.913C394.622 81.3793 407.914 86.9378 418.789 97.8132C429.906 108.93 435.465 122.222 435.465 137.69C435.465 153.157 429.906 166.449 418.789 177.566C407.914 188.441 394.622 194 378.913 194V161.616C382.296 161.616 385.438 161.132 388.338 159.924C391.48 158.715 394.138 157.024 396.313 154.849C398.489 152.674 400.18 150.257 401.389 147.115C402.597 144.215 403.322 141.073 403.322 137.69C403.322 131.164 400.664 125.606 396.072 120.772C391.238 115.939 385.68 113.522 378.913 113.522ZM549.587 129.714L533.636 161.616L517.202 194H481.434L578.104 0.659775L642.632 129.714H606.38L578.104 72.9207L549.587 129.714ZM658.582 161.857L674.774 194H638.765L622.814 161.857H658.582Z"
        fill="white" />
</svg>