<svg width="519" height="367" viewBox="0 0 519 367" fill="none" xmlns="http://www.w3.org/2000/svg">
    <path
        d="M151.9 84.9857V121.669C151.9 124.468 151.735 127.062 150.774 129.169C149.353 132.29 147.337 134.326 144.745 134.34C140.401 134.364 137.161 128.725 137.161 121.73V84.9794C137.161 77.9932 140.604 72.3327 144.947 72.3404C146.646 72.3436 148.176 73.2209 149.462 74.7065C149.815 75.1099 149.725 75.5625 150.029 76.0542C151.451 78.345 151.9 81.4989 151.9 84.9857Z"
        fill="url(#paint0_linear_1_682)" />
    <path
        d="M379.363 133.073C375.258 133.095 371.928 127.604 371.928 120.807V85.0587C371.928 78.262 375.258 72.7581 379.363 72.7655C383.463 72.7729 386.784 78.279 386.784 85.0637V120.748C386.784 127.533 383.463 133.051 379.363 133.073Z"
        fill="url(#paint1_linear_1_682)" />
    <path opacity="0.3"
        d="M377.237 70.1335C375.59 70.1303 374.046 71.0045 372.8 72.4769C372.8 72.4756 372.788 72.4745 372.787 72.4734C358.979 33.6785 313.501 4.81787 258.924 4.3053C247.822 4.20115 237.042 5.27308 226.789 7.38785C226.778 7.38996 226.768 7.39235 226.757 7.39446C226.757 7.39235 226.755 7.38997 226.755 7.38759C185.976 15.76 153.506 40.4412 141.92 72.1192C140.605 70.5995 138.816 69.702 137.078 69.6989C132.635 69.6909 128.785 75.4812 128.785 82.6273V120.219C128.785 127.375 132.462 133.143 136.906 133.119C136.932 133.119 137.015 133.111 137.041 133.111C137.073 133.111 137.134 133.118 137.166 133.118C139.818 133.104 142.312 131.02 143.766 127.827C160.096 165.127 205.745 191.5 258.912 190.853C273.794 190.672 288.007 188.385 301.069 184.361C334.105 174.221 359.911 153.002 371.071 126.732C371.072 126.73 371.074 126.728 371.075 126.726C372.46 129.825 374.727 131.836 377.237 131.822C381.431 131.8 384.875 126.155 384.875 119.215V82.7137C384.874 75.7733 381.431 70.1411 377.237 70.1335Z"
        fill="url(#paint2_linear_1_682)" />
    <path opacity="0.3"
        d="M294.208 204.684L223.341 205.663C214.289 205.788 205.516 208.344 197.854 212.915C191.796 216.511 186.425 221.372 182.142 227.28C172.436 240.678 169.565 257.83 174.409 273.454C174.509 273.773 174.609 274.101 174.708 274.419L176.56 280.385C180.312 292.449 184.051 304.492 187.786 316.536C197.319 347.241 225.537 367.397 257.376 366.365C267.43 366.038 277.111 363.736 285.993 359.792C306.604 350.637 322.94 332.643 329.768 309.916C333.092 298.848 336.422 287.798 339.741 276.747L341.524 270.815C341.62 270.498 341.716 270.172 341.812 269.856C346.467 254.355 343.709 237.639 334.359 224.81C324.989 211.944 310.099 204.464 294.208 204.684Z"
        fill="url(#paint3_linear_1_682)" />
    <path
        d="M379.2 91.5047C379.2 101.515 377.127 111.152 373.296 120.17C362.386 145.851 337.159 166.596 304.862 176.508C292.094 180.442 278.202 182.678 263.653 182.855C211.677 183.488 167.057 157.705 151.093 121.24C147.051 112.012 144.861 102.121 144.861 91.8296C144.861 83.1495 146.423 74.7459 149.337 66.7798C160.663 35.8111 192.374 11.6825 232.24 3.49758C242.263 1.43013 252.799 0.382242 263.653 0.48428C317.007 0.985217 361.462 29.1997 374.961 67.1261C377.722 74.8857 379.2 83.0617 379.2 91.5047Z"
        fill="white" />
    <path
        d="M317.866 140.483L212.494 141.241C190.913 141.397 173.337 123.836 173.337 102.018V78.9492C173.337 69.0923 181.286 61.1193 191.072 61.1407L338.657 61.4658C348.085 61.4867 355.713 69.3236 355.713 78.9704V101.547C355.713 122.9 338.81 140.332 317.866 140.483Z"
        fill="#D8DEE8" />
    <path
        d="M317.866 140.483L212.494 141.241C190.913 141.397 173.337 123.836 173.337 102.018V78.9492C173.337 69.0923 181.286 61.1193 191.072 61.1407L338.657 61.4658C348.085 61.4867 355.713 69.3236 355.713 78.9704V101.547C355.713 122.9 338.81 140.332 317.866 140.483Z"
        fill="url(#paint4_linear_1_682)" />
    <path
        d="M271.154 160.055L256.139 160.197C235.32 160.394 218.367 143.405 218.367 122.25C218.367 101.095 235.32 83.9371 256.139 83.9273L271.154 83.9202C291.799 83.9104 308.46 100.871 308.46 121.802C308.46 142.733 291.799 159.859 271.154 160.055Z"
        fill="#D8DEE8" />
    <path
        d="M271.154 160.055L256.139 160.197C235.32 160.394 218.367 143.405 218.367 122.25C218.367 101.095 235.32 83.9371 256.139 83.9273L271.154 83.9202C291.799 83.9104 308.46 100.871 308.46 121.802C308.46 142.733 291.799 159.859 271.154 160.055Z"
        fill="url(#paint5_linear_1_682)" />
    <path
        d="M320.677 122.704L208.436 123.275C193.087 123.354 180.604 110.851 180.604 95.3504V85.116C180.604 75.2675 188.539 67.2953 198.308 67.3098L330.516 67.5057C339.963 67.5197 347.605 75.3589 347.605 85.015V95.0493C347.606 110.247 335.571 122.629 320.677 122.704Z"
        fill="url(#paint6_linear_1_682)" />
    <path
        d="M241.512 98.4648C242.584 96.9123 243.249 95.1679 243.249 93.286C243.249 87.1944 236.869 82.2578 228.986 82.2601C221.089 82.2622 214.676 87.219 214.676 93.331C214.676 95.2192 215.345 96.9668 216.424 98.5196L241.512 98.4648Z"
        fill="#D8DEE8" />
    <path
        d="M312.654 98.3095C313.708 96.7699 314.363 95.0403 314.363 93.174C314.363 87.1334 308.09 82.2382 300.337 82.2404C292.572 82.2425 286.267 87.1575 286.267 93.2182C286.267 95.0905 286.924 96.8236 287.985 98.3632L312.654 98.3095Z"
        fill="#D8DEE8" />
    <path
        d="M344.689 260.089C344.595 260.398 344.502 260.717 344.408 261.027L342.665 266.826C339.42 277.63 336.164 288.432 332.915 299.252C326.239 321.471 310.269 339.062 290.12 348.012C281.437 351.867 271.973 354.119 262.144 354.437C231.018 355.447 203.431 335.742 194.112 305.724C190.46 293.95 186.805 282.177 183.138 270.383L181.327 264.551C181.23 264.239 181.132 263.918 181.035 263.607C176.299 248.333 179.106 231.565 188.595 218.467C192.783 212.69 198.033 207.939 203.955 204.424C211.445 199.955 220.022 197.456 228.871 197.334L298.152 196.376C313.687 196.162 328.243 203.474 337.403 216.052C346.544 228.594 349.24 244.935 344.689 260.089Z"
        fill="white" />
    <path d="M344.408 261.026L342.665 266.826L183.138 270.383L181.327 264.55L344.408 261.026Z"
        fill="#D8DEE8" />
    <path opacity="0.3"
        d="M272.039 160.034C282.369 166.765 293.573 172.262 304.862 176.508C292.094 180.442 278.202 182.678 263.653 182.855C211.677 183.488 167.057 157.705 151.093 121.24C149.671 124.361 147.453 126.399 144.861 126.413C140.518 126.436 137.076 120.798 137.076 113.802V77.0521C137.076 70.066 140.518 64.4055 144.861 64.4132C146.56 64.4163 148.091 65.2937 149.376 66.7793C160.702 35.8106 192.394 11.6818 232.26 3.49683C236.03 16.9518 235.914 33.699 228.997 54.4814C228.236 56.7571 227.576 59.0041 226.998 61.2222C226.458 63.2852 226.003 65.3294 225.618 67.3538C224.605 72.7084 224.113 77.8991 224.103 82.9246C224.094 88.3104 224.613 93.5006 225.625 98.4943C225.693 98.8057 225.75 99.1076 225.827 99.4095C227.648 107.904 230.874 115.815 235.193 123.14C238.96 129.547 243.569 135.496 248.795 140.978C255.632 148.138 263.529 154.502 272.039 160.034Z"
        fill="#D8DEE8" />
    <path opacity="0.3"
        d="M290.121 348.012C281.438 351.867 271.974 354.118 262.145 354.437C231.019 355.447 203.433 335.742 194.114 305.724C190.461 293.95 186.806 282.176 183.139 270.383L181.328 264.55C181.231 264.239 181.133 263.918 181.036 263.607C176.301 248.332 179.107 231.564 188.596 218.467C192.784 212.69 198.034 207.939 203.956 204.423C204.295 221.609 201.088 241.018 224.826 263.61C226.802 265.495 228.959 267.395 231.317 269.309C237.126 274.041 244.155 278.894 252.657 283.878C293.338 307.705 303.426 331.283 290.121 348.012Z"
        fill="#D8DEE8" />
    <path
        d="M267.879 277.011C267.879 282.49 263.438 286.933 257.958 286.933C252.479 286.933 248.037 282.492 248.037 277.011V249.374C248.037 243.895 252.477 239.453 257.958 239.453C263.437 239.453 267.879 243.895 267.879 249.374V277.011Z"
        fill="white" />
    <path
        d="M267.879 277.011C267.879 282.49 263.438 286.933 257.958 286.933C252.479 286.933 248.037 282.492 248.037 277.011V249.374C248.037 243.895 252.477 239.453 257.958 239.453C263.437 239.453 267.879 243.895 267.879 249.374V277.011Z"
        fill="#34386C" />
    <path
        d="M278.277 302.521H260.084V294.726H262.184H271.011C276.147 294.726 277.801 289.676 277.801 284.54V259.915C277.801 258.784 277.16 257.867 276.029 257.867C274.897 257.867 274.257 258.784 274.257 259.915V284.541C274.257 287.418 273.888 290.475 271.011 290.475H262.184H258.673H249.262C246.385 290.475 242.368 287.418 242.368 284.541V260.499C242.368 259.368 241.019 258.452 239.888 258.452C238.756 258.452 237.407 259.368 237.407 260.499V284.54C237.407 289.676 244.124 294.726 249.26 294.726H255.832V302.521H241.995C240.863 302.521 239.947 303.516 239.947 304.648C239.947 305.779 240.863 306.774 241.995 306.774H278.275C279.407 306.774 280.323 305.779 280.323 304.648C280.324 303.516 279.408 302.521 278.277 302.521Z"
        fill="white" />
    <path
        d="M278.277 302.521H260.084V294.726H262.184H271.011C276.147 294.726 277.801 289.676 277.801 284.54V259.915C277.801 258.784 277.16 257.867 276.029 257.867C274.897 257.867 274.257 258.784 274.257 259.915V284.541C274.257 287.418 273.888 290.475 271.011 290.475H262.184H258.673H249.262C246.385 290.475 242.368 287.418 242.368 284.541V260.499C242.368 259.368 241.019 258.452 239.888 258.452C238.756 258.452 237.407 259.368 237.407 260.499V284.54C237.407 289.676 244.124 294.726 249.26 294.726H255.832V302.521H241.995C240.863 302.521 239.947 303.516 239.947 304.648C239.947 305.779 240.863 306.774 241.995 306.774H278.275C279.407 306.774 280.323 305.779 280.323 304.648C280.324 303.516 279.408 302.521 278.277 302.521Z"
        fill="#34386C" />
    <g opacity="0.4">
        <path
            d="M259.527 222.625C232.009 222.625 209.62 245.013 209.62 272.532C209.62 300.057 232.009 322.445 259.527 322.445C287.052 322.445 309.441 300.057 309.441 272.532C309.441 245.012 287.052 222.625 259.527 222.625ZM259.527 320.429C233.121 320.429 211.637 298.945 211.637 272.532C211.637 246.125 233.121 224.641 259.527 224.641C285.94 224.641 307.426 246.125 307.426 272.532C307.426 298.945 285.94 320.429 259.527 320.429Z"
            fill="white" />
        <path
            d="M259.527 222.625C232.009 222.625 209.62 245.013 209.62 272.532C209.62 300.057 232.009 322.445 259.527 322.445C287.052 322.445 309.441 300.057 309.441 272.532C309.441 245.012 287.052 222.625 259.527 222.625ZM259.527 320.429C233.121 320.429 211.637 298.945 211.637 272.532C211.637 246.125 233.121 224.641 259.527 224.641C285.94 224.641 307.426 246.125 307.426 272.532C307.426 298.945 285.94 320.429 259.527 320.429Z"
            fill="url(#paint7_linear_1_682)" />
    </g>
    <path
        d="M359.53 263.217C359.53 262.182 358.692 261.344 357.657 261.344C356.623 261.344 355.785 262.182 355.785 263.217V290.672C355.785 291.706 356.623 292.544 357.657 292.544C358.692 292.544 359.53 291.706 359.53 290.672V263.217Z"
        fill="white" />
    <path
        d="M397.593 263.217C397.593 262.182 396.755 261.344 395.721 261.344C394.686 261.344 393.848 262.182 393.848 263.217V290.672C393.848 291.706 394.686 292.544 395.721 292.544C396.755 292.544 397.593 291.706 397.593 290.672V263.217Z"
        fill="white" />
    <path
        d="M433.785 263.217C433.785 262.182 432.947 261.344 431.913 261.344C430.879 261.344 430.041 262.182 430.041 263.217V290.672C430.041 291.706 430.879 292.544 431.913 292.544C432.947 292.544 433.785 291.706 433.785 290.672V263.217Z"
        fill="white" />
    <path
        d="M372.01 244.497C372.01 243.463 371.172 242.625 370.137 242.625C369.103 242.625 368.265 243.463 368.265 244.497V303.152C368.265 304.187 369.103 305.025 370.137 305.025C371.172 305.025 372.01 304.187 372.01 303.152V244.497Z"
        fill="white" />
    <path
        d="M421.93 244.497C421.93 243.463 421.092 242.625 420.057 242.625C419.023 242.625 418.185 243.463 418.185 244.497V303.152C418.185 304.187 419.023 305.025 420.057 305.025C421.092 305.025 421.93 304.187 421.93 303.152V244.497Z"
        fill="white" />
    <path
        d="M384.489 256.041C384.489 255.179 383.791 254.48 382.929 254.48C382.067 254.48 381.369 255.178 381.369 256.041V297.848C381.369 298.71 382.067 299.409 382.929 299.409C383.79 299.409 384.489 298.711 384.489 297.848V256.041Z"
        fill="white" />
    <path
        d="M410.073 254.168C410.073 253.307 409.374 252.608 408.512 252.608C407.651 252.608 406.952 253.306 406.952 254.168V295.976C406.952 296.838 407.65 297.536 408.512 297.536C409.374 297.536 410.073 296.838 410.073 295.976V254.168Z"
        fill="white" />
    <g opacity="0.34">
        <path
            d="M444.53 263.217C444.53 262.182 443.692 261.344 442.657 261.344C441.623 261.344 440.785 262.182 440.785 263.217V290.672C440.785 291.706 441.623 292.544 442.657 292.544C443.692 292.544 444.53 291.706 444.53 290.672V263.217Z"
            fill="white" />
        <path
            d="M482.593 263.217C482.593 262.182 481.755 261.344 480.721 261.344C479.686 261.344 478.848 262.182 478.848 263.217V290.672C478.848 291.706 479.686 292.544 480.721 292.544C481.755 292.544 482.593 291.706 482.593 290.672V263.217Z"
            fill="white" />
        <path
            d="M518.785 263.217C518.785 262.182 517.947 261.344 516.913 261.344C515.879 261.344 515.041 262.182 515.041 263.217V290.672C515.041 291.706 515.879 292.544 516.913 292.544C517.947 292.544 518.785 291.706 518.785 290.672V263.217Z"
            fill="white" />
        <path
            d="M457.01 244.497C457.01 243.463 456.172 242.625 455.137 242.625C454.103 242.625 453.265 243.463 453.265 244.497V303.152C453.265 304.187 454.103 305.025 455.137 305.025C456.172 305.025 457.01 304.187 457.01 303.152V244.497Z"
            fill="white" />
        <path
            d="M506.93 244.497C506.93 243.463 506.092 242.625 505.057 242.625C504.023 242.625 503.185 243.463 503.185 244.497V303.152C503.185 304.187 504.023 305.025 505.057 305.025C506.092 305.025 506.93 304.187 506.93 303.152V244.497Z"
            fill="white" />
        <path
            d="M469.489 256.041C469.489 255.179 468.791 254.48 467.929 254.48C467.067 254.48 466.369 255.178 466.369 256.041V297.848C466.369 298.71 467.067 299.409 467.929 299.409C468.79 299.409 469.489 298.711 469.489 297.848V256.041Z"
            fill="white" />
        <path
            d="M495.073 254.168C495.073 253.307 494.374 252.608 493.512 252.608C492.651 252.608 491.952 253.306 491.952 254.168V295.976C491.952 296.838 492.65 297.536 493.512 297.536C494.374 297.536 495.073 296.838 495.073 295.976V254.168Z"
            fill="white" />
    </g>
    <path
        d="M159.041 263.217C159.041 262.182 159.879 261.344 160.913 261.344C161.947 261.344 162.785 262.182 162.785 263.217V290.672C162.785 291.706 161.947 292.544 160.913 292.544C159.879 292.544 159.041 291.706 159.041 290.672V263.217Z"
        fill="white" />
    <path
        d="M120.977 263.217C120.977 262.182 121.815 261.344 122.85 261.344C123.884 261.344 124.722 262.182 124.722 263.217V290.672C124.722 291.706 123.884 292.544 122.85 292.544C121.815 292.544 120.977 291.706 120.977 290.672V263.217Z"
        fill="white" />
    <path
        d="M84.7852 263.217C84.7852 262.182 85.6231 261.344 86.6574 261.344C87.6917 261.344 88.5297 262.182 88.5297 263.217V290.672C88.5297 291.706 87.6917 292.544 86.6574 292.544C85.6231 292.544 84.7852 291.706 84.7852 290.672V263.217Z"
        fill="white" />
    <path
        d="M146.561 244.497C146.561 243.463 147.399 242.625 148.433 242.625C149.467 242.625 150.305 243.463 150.305 244.497V303.152C150.305 304.187 149.467 305.025 148.433 305.025C147.399 305.025 146.561 304.187 146.561 303.152V244.497Z"
        fill="white" />
    <path
        d="M96.6408 244.497C96.6408 243.463 97.4787 242.625 98.513 242.625C99.5473 242.625 100.385 243.463 100.385 244.497V303.152C100.385 304.187 99.5473 305.025 98.513 305.025C97.4787 305.025 96.6408 304.187 96.6408 303.152V244.497Z"
        fill="white" />
    <path
        d="M134.081 256.041C134.081 255.179 134.779 254.48 135.641 254.48C136.503 254.48 137.202 255.178 137.202 256.041V297.848C137.202 298.71 136.504 299.409 135.641 299.409C134.78 299.409 134.081 298.711 134.081 297.848V256.041Z"
        fill="white" />
    <path
        d="M108.498 254.168C108.498 253.307 109.197 252.608 110.058 252.608C110.92 252.608 111.618 253.306 111.618 254.168V295.976C111.618 296.838 110.92 297.536 110.058 297.536C109.197 297.536 108.498 296.838 108.498 295.976V254.168Z"
        fill="white" />
    <g opacity="0.34">
        <path
            d="M74.0406 263.217C74.0406 262.182 74.8786 261.344 75.9129 261.344C76.9472 261.344 77.7852 262.182 77.7852 263.217V290.672C77.7852 291.706 76.9472 292.544 75.9129 292.544C74.8786 292.544 74.0406 291.706 74.0406 290.672V263.217Z"
            fill="white" />
        <path
            d="M35.9774 263.217C35.9774 262.182 36.8154 261.344 37.8497 261.344C38.884 261.344 39.7219 262.182 39.7219 263.217V290.672C39.7219 291.706 38.884 292.544 37.8497 292.544C36.8154 292.544 35.9774 291.706 35.9774 290.672V263.217Z"
            fill="white" />
        <path
            d="M-0.214863 263.217C-0.214863 262.182 0.623091 261.344 1.65739 261.344C2.69169 261.344 3.52966 262.182 3.52966 263.217V290.672C3.52966 291.706 2.69169 292.544 1.65739 292.544C0.623091 292.544 -0.214863 291.706 -0.214863 290.672V263.217Z"
            fill="white" />
        <path
            d="M61.5608 244.497C61.5608 243.463 62.3987 242.625 63.433 242.625C64.4673 242.625 65.3053 243.463 65.3053 244.497V303.152C65.3053 304.187 64.4673 305.025 63.433 305.025C62.3987 305.025 61.5608 304.187 61.5608 303.152V244.497Z"
            fill="white" />
        <path
            d="M11.6407 244.497C11.6407 243.463 12.4787 242.625 13.513 242.625C14.5473 242.625 15.3853 243.463 15.3853 244.497V303.152C15.3853 304.187 14.5473 305.025 13.513 305.025C12.4787 305.025 11.6407 304.187 11.6407 303.152V244.497Z"
            fill="white" />
        <path
            d="M49.081 256.041C49.081 255.179 49.779 254.48 50.6414 254.48C51.5028 254.48 52.2018 255.178 52.2018 256.041V297.848C52.2018 298.71 51.5038 299.409 50.6414 299.409C49.78 299.409 49.081 298.711 49.081 297.848V256.041Z"
            fill="white" />
        <path
            d="M23.4977 254.168C23.4977 253.307 24.1966 252.608 25.058 252.608C25.9195 252.608 26.6184 253.306 26.6184 254.168V295.976C26.6184 296.838 25.9204 297.536 25.058 297.536C24.1966 297.536 23.4977 296.838 23.4977 295.976V254.168Z"
            fill="white" />
    </g>
    <defs>
        <linearGradient id="paint0_linear_1_682" x1="137.161" y1="103.341" x2="151.9" y2="103.341"
            gradientUnits="userSpaceOnUse">
            <stop stop-color="#444B8C" />
            <stop offset="0.9964" stop-color="#26264F" />
        </linearGradient>
        <linearGradient id="paint1_linear_1_682" x1="371.928" y1="102.92" x2="386.784" y2="102.92"
            gradientUnits="userSpaceOnUse">
            <stop stop-color="#444B8C" />
            <stop offset="0.9964" stop-color="#26264F" />
        </linearGradient>
        <linearGradient id="paint2_linear_1_682" x1="128.785" y1="97.5816" x2="384.874" y2="97.5816"
            gradientUnits="userSpaceOnUse">
            <stop stop-color="#444B8C" />
            <stop offset="0.9964" stop-color="#26264F" />
        </linearGradient>
        <linearGradient id="paint3_linear_1_682" x1="172.1" y1="285.541" x2="344.03" y2="285.541"
            gradientUnits="userSpaceOnUse">
            <stop stop-color="#444B8C" />
            <stop offset="0.9964" stop-color="#26264F" />
        </linearGradient>
        <linearGradient id="paint4_linear_1_682" x1="191.534" y1="-24.2509" x2="294.234"
            y2="-21.6011" gradientUnits="userSpaceOnUse">
            <stop stop-color="#E96B95" />
            <stop offset="0.610467" stop-color="#9C7CEB" />
            <stop offset="0.967262" stop-color="#D590FF" />
        </linearGradient>
        <linearGradient id="paint5_linear_1_682" x1="227.356" y1="2.60427" x2="278.115" y2="3.28364"
            gradientUnits="userSpaceOnUse">
            <stop stop-color="#E96B95" />
            <stop offset="0.610467" stop-color="#9C7CEB" />
            <stop offset="0.967262" stop-color="#D590FF" />
        </linearGradient>
        <linearGradient id="paint6_linear_1_682" x1="180.604" y1="95.2928" x2="347.606" y2="95.2928"
            gradientUnits="userSpaceOnUse">
            <stop stop-color="#444B8C" />
            <stop offset="0.9964" stop-color="#26264F" />
        </linearGradient>
        <linearGradient id="paint7_linear_1_682" x1="219.58" y1="116.212" x2="275.822" y2="116.85"
            gradientUnits="userSpaceOnUse">
            <stop stop-color="#E96B95" />
            <stop offset="0.610467" stop-color="#9C7CEB" />
            <stop offset="0.967262" stop-color="#D590FF" />
        </linearGradient>
    </defs>
</svg>
    