<svg width="331" height="341" viewBox="0 0 331 341" fill="none" xmlns="http://www.w3.org/2000/svg">
    <g opacity="0.3">
        <path opacity="0.047619"
            d="M161.574 23.0479C150.804 16.92 142.076 21.7481 142.076 34.1896V187.945C142.076 200.201 150.804 215.242 161.574 221.37L184.972 233.626C195.742 239.754 208.555 234.183 208.555 221.927V68.1717C208.555 55.9159 195.742 41.4317 184.972 35.3038L161.574 23.0479Z"
            fill="url(#paint0_linear_1_750)" />
        <path opacity="0.095238"
            d="M161.76 24.9049C151.361 18.777 142.819 23.7907 142.819 35.6752V186.274C142.819 198.344 151.361 212.828 161.76 218.956L184.6 231.026C194.999 237.154 207.441 231.583 207.441 219.513V68.9145C207.441 56.8444 194.999 42.9173 184.6 36.7893L161.76 24.9049Z"
            fill="url(#paint1_linear_1_750)" />
        <path opacity="0.1429"
            d="M161.76 26.7616C151.546 20.8193 143.376 25.6474 143.376 37.3462V184.602C143.376 196.301 151.546 210.599 161.76 216.356L184.043 228.055C194.256 233.997 206.326 228.612 206.326 216.913V69.657C206.326 57.9583 194.256 44.2169 184.043 38.4603L161.76 26.7616Z"
            fill="url(#paint2_linear_1_750)" />
        <path opacity="0.1905"
            d="M161.946 28.6187C152.104 22.8622 143.933 27.5045 143.933 38.8319V182.745C143.933 194.073 151.918 208 161.946 213.756L183.486 225.084C193.328 230.84 205.027 225.641 205.027 214.313V70.4C205.027 59.0726 193.328 45.7026 183.486 39.9461L161.946 28.6187Z"
            fill="url(#paint3_linear_1_750)" />
        <path opacity="0.2381"
            d="M161.945 30.4756C152.289 24.9048 144.49 29.3614 144.49 40.5031V181.074C144.49 192.216 152.289 205.586 161.945 211.157L182.929 222.298C192.585 227.869 203.727 222.855 203.727 211.714V71.1428C203.727 60.0011 192.585 47.0024 182.929 41.4316L161.945 30.4756Z"
            fill="url(#paint4_linear_1_750)" />
        <path opacity="0.2857"
            d="M161.946 32.3325C152.476 26.9474 144.862 31.2184 144.862 41.9887V179.403C144.862 190.173 152.476 203.357 161.946 208.743L182.373 219.513C191.843 224.898 202.428 220.07 202.428 209.3V71.8855C202.428 61.1152 191.657 48.488 182.373 43.1028L161.946 32.3325Z"
            fill="url(#paint5_linear_1_750)" />
        <path opacity="0.3333"
            d="M162.131 34.1897C153.032 28.9903 145.605 33.0755 145.605 43.6601V177.732C145.605 188.131 153.032 200.944 162.131 206.143L182.001 216.542C191.1 221.741 201.499 217.099 201.499 206.7V72.6285C201.499 62.2296 191.1 49.7881 182.001 44.5886L162.131 34.1897Z"
            fill="url(#paint6_linear_1_750)" />
        <path opacity="0.381"
            d="M162.132 36.0464C153.218 30.847 146.162 35.1179 146.162 45.1455V176.06C146.162 186.273 153.404 198.529 162.132 203.729L181.444 213.942C190.357 219.141 200.199 214.499 200.199 204.286V73.5568C200.199 63.3436 190.357 51.4591 181.444 46.2596L162.132 36.0464Z"
            fill="url(#paint7_linear_1_750)" />
        <path opacity="0.4286"
            d="M162.317 37.9035C153.775 32.8897 146.719 36.975 146.719 46.8168V174.203C146.719 184.045 153.59 196.115 162.317 200.943L181.072 210.785C189.614 215.799 199.085 211.342 199.085 201.501V73.9282C199.085 64.0864 189.614 52.5734 181.072 47.5596L162.317 37.9035Z"
            fill="url(#paint8_linear_1_750)" />
        <path opacity="0.4762"
            d="M162.317 39.7605C153.96 34.9324 147.275 38.832 147.275 48.3024V172.532C147.275 182.003 153.96 193.701 162.317 198.53L180.515 208.186C188.871 213.014 197.784 208.743 197.784 199.272V75.0425C197.784 65.5721 188.685 54.2447 180.515 49.4166L162.317 39.7605Z"
            fill="url(#paint9_linear_1_750)" />
        <path opacity="0.5238"
            d="M162.317 41.6173C154.332 36.9749 147.833 40.6888 147.833 49.9735V170.861C147.833 180.146 154.332 191.287 162.317 195.93L179.958 205.214C187.943 209.857 196.671 205.771 196.671 196.487V75.7851C196.671 66.5004 188.129 55.7301 179.958 51.0877L162.317 41.6173Z"
            fill="url(#paint10_linear_1_750)" />
        <path opacity="0.5714"
            d="M162.502 43.4743C154.703 39.0177 148.39 42.5458 148.39 51.4592V169.004C148.39 177.917 154.703 188.873 162.502 193.33L179.586 202.243C187.385 206.7 195.556 202.8 195.556 193.887V76.3423C195.556 67.429 187.385 56.8443 179.586 52.3877L162.502 43.4743Z"
            fill="url(#paint11_linear_1_750)" />
        <path opacity="0.619"
            d="M162.503 45.3311C155.075 41.0602 148.947 44.4027 148.947 53.1303V167.518C148.947 176.06 155.075 186.645 162.503 190.916L178.844 199.643C186.272 203.914 194.071 200.201 194.071 191.659V77.2706C194.071 68.7287 186.272 58.5155 178.844 54.0588L162.503 45.3311Z"
            fill="url(#paint12_linear_1_750)" />
        <path opacity="0.6667"
            d="M162.688 47.1882C155.446 42.9172 149.504 46.4454 149.504 54.616V165.661C149.504 174.018 155.446 184.045 162.688 188.316L178.472 196.672C185.714 200.943 192.956 197.23 192.956 189.059V78.0135C192.956 69.6573 185.529 59.8154 178.472 55.7302L162.688 47.1882Z"
            fill="url(#paint13_linear_1_750)" />
        <path opacity="0.7143"
            d="M162.689 49.0451C155.632 44.9598 150.061 48.3023 150.061 56.2872V163.99C150.061 171.975 155.632 181.817 162.689 185.716L177.915 193.701C184.972 197.787 191.843 194.258 191.843 186.274V78.5706C191.843 70.5857 184.972 61.1153 177.915 57.03L162.689 49.0451Z"
            fill="url(#paint14_linear_1_750)" />
        <path opacity="0.7619"
            d="M162.874 50.902C156.189 47.0024 150.804 50.1592 150.804 57.7727V162.133C150.804 169.747 156.189 179.217 162.874 183.117L177.544 190.916C184.229 194.815 190.728 191.473 190.728 183.859V79.499C190.728 71.8855 184.229 62.6008 177.544 58.7012L162.874 50.902Z"
            fill="url(#paint15_linear_1_750)" />
        <path opacity="0.8095"
            d="M162.874 52.7589C156.375 49.0451 151.176 52.0162 151.176 59.4439V160.648C151.176 168.075 156.375 176.989 162.874 180.703L176.987 188.13C183.487 191.844 189.429 188.687 189.429 181.445V80.2417C189.429 72.814 183.301 64.0863 176.987 60.3724L162.874 52.7589Z"
            fill="url(#paint16_linear_1_750)" />
        <path opacity="0.8571"
            d="M162.874 54.616C156.746 51.0878 151.733 53.8732 151.733 60.9296V158.791C151.733 165.847 156.746 174.389 162.874 178.103L176.43 185.345C182.558 188.873 188.129 185.902 188.129 178.846V80.9846C188.129 73.9282 182.558 65.3863 176.43 61.8581L162.874 54.616Z"
            fill="url(#paint17_linear_1_750)" />
        <path opacity="0.9048"
            d="M163.06 56.473C157.118 53.1305 152.475 55.7302 152.475 62.6009V157.12C152.475 163.805 157.303 172.161 163.06 175.503L176.059 182.374C182.001 185.717 187.2 182.931 187.2 176.246V81.7275C187.2 75.0424 182.001 66.8719 176.059 63.3437L163.06 56.473Z"
            fill="url(#paint18_linear_1_750)" />
        <path opacity="0.9524"
            d="M163.06 58.3299C157.489 55.1731 152.847 57.7728 152.847 64.0864V155.263C152.847 161.762 157.489 169.561 163.06 172.904L175.501 179.403C181.072 182.56 185.9 179.96 185.9 173.646V82.4702C185.9 75.9709 181.072 68.1717 175.501 65.0149L163.06 58.3299Z"
            fill="url(#paint19_linear_1_750)" />
        <path
            d="M163.246 60.1867C157.861 57.0299 153.59 59.6296 153.59 65.7576V153.777C153.59 159.905 157.861 167.333 163.246 170.489L175.13 176.803C180.515 179.96 184.786 177.36 184.786 171.232V83.2129C184.786 77.0849 180.515 69.6571 175.13 66.5003L163.246 60.1867Z"
            fill="url(#paint20_linear_1_750)" />
    </g>
    <path
        d="M156.746 314.403C184.744 314.403 207.441 302.847 207.441 288.591C207.441 274.336 184.744 262.78 156.746 262.78C128.748 262.78 106.052 274.336 106.052 288.591C106.052 302.847 128.748 314.403 156.746 314.403Z"
        fill="url(#paint21_radial_1_750)" />
    <path
        d="M194.257 278.378H102.523V288.034C102.523 288.034 102.523 288.22 102.523 288.406C102.523 303.076 123.136 315.146 148.39 315.146C173.644 315.146 194.257 303.261 194.257 288.406C194.257 288.22 194.257 288.22 194.257 288.034V278.378Z"
        fill="url(#paint22_linear_1_750)" />
    <path
        d="M148.39 305.304C173.721 305.304 194.257 293.332 194.257 278.564C194.257 263.796 173.721 251.824 148.39 251.824C123.059 251.824 102.523 263.796 102.523 278.564C102.523 293.332 123.059 305.304 148.39 305.304Z"
        fill="url(#paint23_linear_1_750)" />
    <path
        d="M148.39 305.118C123.321 305.118 102.895 293.419 102.523 278.935C102.523 279.121 102.523 279.306 102.523 279.492C102.523 294.162 123.136 306.232 148.39 306.232C173.644 306.232 194.257 294.348 194.257 279.492C194.257 279.306 194.257 279.121 194.257 278.935C193.885 293.419 173.459 305.118 148.39 305.118Z"
        fill="url(#paint24_radial_1_750)" />
    <path
        d="M151.547 286.549C159.649 286.549 166.217 283.223 166.217 279.121C166.217 275.019 159.649 271.693 151.547 271.693C143.445 271.693 136.877 275.019 136.877 279.121C136.877 283.223 143.445 286.549 151.547 286.549Z"
        fill="url(#paint25_radial_1_750)" />
    <path
        d="M157.117 207.072H139.662V280.05C139.662 282.835 143.562 285.063 148.39 285.063C153.218 285.063 157.117 282.835 157.117 280.05V207.072Z"
        fill="url(#paint26_linear_1_750)" />
    <path
        d="M156.746 204.1C137.434 192.959 121.835 166.033 121.835 143.935V121.838H121.65L104.38 129.637V151.735C104.38 173.832 119.978 200.758 139.291 211.9C147.647 216.728 155.446 217.842 161.574 215.613L162.688 215.056C162.688 215.056 162.688 215.056 162.874 215.056L178.658 208C172.716 209.857 165.102 208.929 156.746 204.1Z"
        fill="url(#paint27_linear_1_750)" />
    <path
        d="M153.033 217.656C164.827 217.656 174.388 212.834 174.388 206.886C174.388 200.937 164.827 196.115 153.033 196.115C141.239 196.115 131.678 200.937 131.678 206.886C131.678 212.834 141.239 217.656 153.033 217.656Z"
        fill="url(#paint28_radial_1_750)" />
    <path d="M102.523 128.337L104.566 129.637L122.021 121.837L119.793 120.909L102.523 128.337Z"
        fill="url(#paint29_linear_1_750)" />
    <path
        d="M151.361 202.243H148.018C127.778 202.243 111.251 185.716 111.251 165.476V75.0424C111.251 54.8016 127.778 38.2748 148.018 38.2748H151.361C171.602 38.2748 188.129 54.8016 188.129 75.0424V165.476C188.129 185.716 171.602 202.243 151.361 202.243Z"
        fill="url(#paint30_linear_1_750)" />
    <path opacity="0.5"
        d="M127.592 164.176V71.6999C127.592 55.1731 140.219 41.6174 156.375 39.9461C155.261 39.7604 154.146 39.7604 153.032 39.7604H152.104C131.492 39.7604 114.965 56.473 114.965 76.8994V158.791C114.965 179.403 131.677 195.93 152.104 195.93H153.032C154.146 195.93 155.261 195.93 156.375 195.744C140.219 194.444 127.592 180.703 127.592 164.176Z"
        fill="url(#paint31_radial_1_750)" />
    <path
        d="M149.689 145.978C127.406 145.978 109.394 135.393 109.394 122.58V158.048C109.394 158.048 109.394 158.234 109.394 158.419C109.394 171.418 127.406 181.817 149.689 181.817C171.973 181.817 189.985 171.232 189.985 158.419C189.985 158.234 189.985 158.234 189.985 158.048V122.58C189.985 135.579 171.973 145.978 149.689 145.978Z"
        fill="url(#paint32_linear_1_750)" />
    <path d="M160.832 216.542L161.946 215.985C161.76 216.171 161.203 216.356 160.832 216.542Z"
        fill="url(#paint33_linear_1_750)" />
    <path
        d="M173.831 153.034V192.402C173.831 204.286 169.374 212.642 162.132 215.985L178.844 208.371C186.458 205.214 191.286 196.858 191.286 184.417V145.049L173.831 153.034Z"
        fill="url(#paint34_linear_1_750)" />
    <path
        d="M171.788 151.734V192.402C171.788 206.7 165.103 215.613 154.147 215.613C149.504 215.613 144.49 213.942 139.105 210.971C119.979 200.015 104.566 173.275 104.566 151.363V129.637L102.523 128.337V151.177C102.523 173.832 118.493 201.315 138.177 212.642C157.86 223.97 173.83 214.871 173.83 192.402V153.034L171.788 151.734Z"
        fill="url(#paint35_linear_1_750)" />
    <path d="M191.286 145.235L173.831 153.034L171.788 151.734L189.243 143.935L191.286 145.235Z"
        fill="url(#paint36_linear_1_750)" />
    <path
        d="M188.314 115.895C188.314 118.309 188.314 121.095 188.314 121.28C188.314 133.722 171.045 143.75 149.876 143.75C128.706 143.75 111.437 133.722 111.437 121.28C111.437 121.095 111.437 118.309 111.437 115.895C110.323 118.124 109.766 120.352 109.766 122.766C109.766 135.765 127.778 146.164 150.061 146.164C172.345 146.164 190.357 135.579 190.357 122.766C190.171 120.352 189.429 118.124 188.314 115.895Z"
        fill="url(#paint37_linear_1_750)" />
    <path
        d="M176.058 164.362C176.058 166.404 176.801 167.89 177.915 168.447L179.772 169.747C180.887 170.49 180.144 168.818 182.001 167.89C185.529 165.847 188.5 160.833 188.5 156.562C188.5 154.52 190.357 154.52 189.243 153.777L187.2 152.477C186.086 151.92 184.415 151.92 182.558 153.034C179.03 155.263 176.058 160.276 176.058 164.362Z"
        fill="url(#paint38_linear_1_750)" />
    <path
        d="M178.101 165.662C178.101 169.747 181.073 171.418 184.601 169.375C188.129 167.333 191.1 162.319 191.1 158.048C191.1 153.777 188.129 152.292 184.601 154.334C181.073 156.562 178.101 161.576 178.101 165.662Z"
        fill="#B086CC" />
    <path
        d="M184.6 154.52C186.271 153.592 187.757 153.22 188.871 153.777C187.757 153.406 186.457 153.777 184.972 154.52C181.443 156.563 178.472 161.576 178.472 165.847C178.472 168.076 179.215 169.561 180.515 170.118C178.844 169.747 178.101 168.261 178.101 165.662C177.915 161.576 180.886 156.563 184.6 154.52Z"
        fill="url(#paint39_radial_1_750)" />
    <path opacity="0.7"
        d="M150.247 89.7124C167.271 89.7124 181.072 79.1538 181.072 66.1292C181.072 53.1045 167.271 42.546 150.247 42.546C133.223 42.546 119.422 53.1045 119.422 66.1292C119.422 79.1538 133.223 89.7124 150.247 89.7124Z"
        fill="url(#paint40_radial_1_750)" />
    <path
        d="M149.876 145.978C127.964 145.978 110.137 135.764 109.766 122.952C109.766 123.137 109.766 123.323 109.766 123.323C109.766 136.322 127.778 146.721 150.061 146.721C172.345 146.721 190.357 136.322 190.357 123.323C190.357 123.137 190.357 122.952 190.357 122.952C189.614 135.579 171.788 145.978 149.876 145.978Z"
        fill="url(#paint41_radial_1_750)" />
    <path opacity="0.7273"
        d="M87.9476 81.915C95.362 62.9653 90.9941 34.5251 78.2134 18.523C73.0439 12.053 67.2677 8.59919 61.7401 8.0398C59.7145 7.83246 52.168 8.2153 50.4175 8.50175C43.882 9.56105 38.0081 14.8819 34.3426 24.2501C26.9282 43.1998 31.2961 71.64 44.0768 87.6421C49.7878 94.7922 56.2299 98.2491 62.2751 98.2034C63.708 98.1906 70.3326 97.9503 72.2002 97.6043C78.6072 96.4245 84.3456 91.1209 87.9476 81.915Z"
        fill="url(#paint42_linear_1_750)" />
    <path opacity="0.7521"
        d="M48.9466 9.92784C42.9954 11.9765 37.3519 16.7086 34.0222 25.787C27.1382 44.4878 31.6005 72.0286 44.0807 87.6322C50.1002 95.1605 56.9677 98.6667 63.1934 97.8607C64.8089 97.6502 71.0368 96.8685 72.9688 96.2082C78.8414 94.2108 84.3261 89.3463 87.6103 80.414C94.4983 61.7031 90.036 34.1622 77.5558 18.5586C72.088 11.7143 65.9354 8.26539 60.1814 8.28455C57.9692 8.28506 50.8543 9.26981 48.9466 9.92784Z"
        fill="url(#paint43_linear_1_750)" />
    <path opacity="0.7769"
        d="M47.4859 11.3575C42.149 14.0795 36.716 18.5429 33.7018 27.3234C27.3584 45.7792 31.9191 72.4106 44.0705 87.6281C50.4046 95.5486 57.709 99.0151 64.0975 97.5238C65.8895 97.1015 71.6766 95.8313 73.7374 94.8118C79.0509 92.2094 84.2862 87.5633 87.2589 78.9187C93.6063 60.4527 89.0496 33.8113 76.888 18.5898C71.1219 11.3713 64.5748 7.94357 58.6125 8.52494C56.2057 8.7536 49.601 10.289 47.4859 11.3575Z"
        fill="url(#paint44_linear_1_750)" />
    <path opacity="0.8017"
        d="M46.0254 12.7873C40.7207 14.9485 36.0803 20.3774 33.3777 28.8701C27.585 47.085 32.2198 72.8091 44.0707 87.6281C50.7093 95.937 58.4704 99.313 65.012 97.1911C66.9947 96.5507 72.3148 94.8286 74.5164 93.4195C79.2902 90.3718 84.2669 85.7884 86.9179 77.4276C92.7185 59.1924 88.0776 33.4543 76.2307 18.6251C70.1724 11.0465 63.2228 7.66031 57.054 8.76947C54.4487 9.23644 48.0001 10.8213 46.0254 12.7873Z"
        fill="url(#paint45_linear_1_750)" />
    <path opacity="0.8264"
        d="M44.5648 14.2174C39.6758 16.7519 35.4507 22.2262 33.0675 30.4109C27.8357 48.3888 32.5486 73.1954 44.0707 87.6283C51.0177 96.3154 59.2091 99.5789 65.9303 96.8484C68.1014 95.9657 72.9754 93.8584 75.2851 92.0234C79.5584 88.6395 84.221 83.9917 86.5768 75.9367C91.8267 57.9425 87.1155 33.1015 75.5731 18.6606C69.2165 10.7079 61.8627 7.39754 55.4954 9.01419C52.6915 9.71946 46.6062 11.6922 44.5648 14.2174Z"
        fill="url(#paint46_linear_1_750)" />
    <path opacity="0.8512"
        d="M43.1043 15.6471C38.6209 18.5509 34.8251 24.0645 32.7473 31.9474C28.0723 49.6985 32.8532 73.5836 44.0748 87.6181C51.3263 96.6934 59.9395 99.806 66.8487 96.5054C69.1941 95.3866 73.6485 92.9161 76.068 90.6209C79.9062 86.9731 84.1954 82.2026 86.2436 74.4252C90.9265 56.6539 86.1514 32.7241 74.9237 18.6756C68.2789 10.3526 60.527 7.1323 53.9448 9.23835C50.9344 10.2022 45.2162 12.5527 43.1043 15.6471Z"
        fill="url(#paint47_linear_1_750)" />
    <path opacity="0.876"
        d="M41.6435 17.0769C37.5798 20.3439 34.2094 25.9069 32.433 33.4981C28.3393 51.0201 33.1778 73.9799 44.0808 87.6322C51.6408 97.0857 60.6658 100.043 67.7691 96.1867C70.2928 94.8217 74.3663 92.0384 76.8427 89.2388C80.2785 85.3632 84.1515 80.4299 85.8984 72.9443C90.0142 55.3958 85.1813 32.3914 74.262 18.721C67.315 10.034 59.1753 6.90771 52.372 9.48903C49.1832 10.6992 43.8221 13.4234 41.6435 17.0769Z"
        fill="url(#paint48_linear_1_750)" />
    <path opacity="0.9008"
        d="M40.1788 18.5169C37.1093 22.6528 33.5858 27.7696 32.1086 35.0448C28.6061 52.3417 33.4782 74.3783 44.0705 87.6282C51.9351 97.4701 61.3655 100.259 68.6772 95.8398C71.3729 94.2145 75.1225 91.1523 77.6113 87.8425C80.6953 83.7591 84.0953 78.629 85.5571 71.4532C89.0816 54.1297 84.209 32.0344 73.6044 18.7563C66.359 9.69511 57.8376 6.67693 50.8132 9.73353C47.4281 11.2062 43.04 14.6741 40.1788 18.5169Z"
        fill="url(#paint49_linear_1_750)" />
    <path opacity="0.9256"
        d="M38.7184 19.9467C35.952 24.2949 32.9704 29.6121 31.7986 36.5854C28.9078 53.6652 33.8032 74.7746 44.0808 87.6322C52.2499 97.8624 62.0696 100.464 69.6018 95.5111C72.4556 93.6315 75.9258 90.2961 78.4004 86.4542C81.161 82.1506 84.0557 76.8462 85.2302 69.9559C88.1572 52.8434 83.2613 31.6753 72.9611 18.7855C65.4276 9.35403 56.5205 6.45413 49.2689 9.97189C45.6772 11.7032 41.5747 15.4583 38.7184 19.9467Z"
        fill="url(#paint50_linear_1_750)" />
    <path opacity="0.9504"
        d="M37.2581 21.3764C34.7769 25.9531 32.3755 31.4623 31.4746 38.132C29.2096 54.9885 34.1081 75.1628 44.0711 87.6281C52.5486 98.2365 62.7495 100.671 70.5064 95.1742C73.5322 93.0343 76.7637 89.4416 79.1593 85.0538C81.6388 80.5115 83.9757 75.0474 84.8691 68.4567C87.1703 51.5675 82.2692 31.3102 72.2837 18.8128C64.4518 9.00709 55.1731 6.2193 47.6903 10.2084C43.9328 12.2141 40.0548 16.2327 37.2581 21.3764Z"
        fill="url(#paint51_linear_1_750)" />
    <path opacity="0.9752"
        d="M35.7975 22.8061C33.5692 27.6339 31.7843 33.3024 31.1544 39.6685C29.5252 56.3056 34.4127 75.551 44.0711 87.628C52.8633 98.6286 63.4292 100.878 71.4208 94.8413C74.5985 92.4331 77.6459 88.5929 79.9343 83.6715C82.1569 78.8883 83.9117 73.2667 84.5342 66.9796C86.2035 50.2996 81.3094 30.9814 71.6223 18.8581C63.4881 8.68838 53.848 6.01665 46.1278 10.4629C42.188 12.7251 38.4799 16.9973 35.7975 22.8061Z"
        fill="url(#paint52_linear_1_750)" />
    <path
        d="M70.9783 18.8875C58.1976 2.88534 41.7609 5.29044 34.3425 24.2503C26.9281 43.2 31.296 71.6402 44.0767 87.6423C56.8575 103.644 73.2942 101.239 80.7125 82.2795C88.1309 63.3196 83.763 34.8794 70.9783 18.8875Z"
        fill="url(#paint53_linear_1_750)" />
    <path
        d="M53.6571 61.8393C56.8262 65.7945 60.9081 65.203 62.7428 60.5138L67.8737 47.4002C69.7084 42.711 68.6249 35.6394 65.4558 31.6842C62.2868 27.729 58.2049 28.3205 56.3701 33.0097L51.2392 46.1232C49.4045 50.8124 50.4881 57.8841 53.6571 61.8393Z"
        fill="white" />
    <path
        d="M67.2277 59.1318C66.7026 58.4699 66.0212 58.5661 65.7115 59.3578L64.4287 62.6362C62.046 68.7261 56.7712 69.4945 52.6622 64.3523C48.5532 59.2101 47.1505 50.0824 49.5333 43.9925L50.816 40.7141C51.1218 39.9326 50.9408 38.75 50.4117 38.0982C49.8865 37.4363 49.2052 37.5325 48.8954 38.3242L47.6127 41.6026C44.9043 48.5247 46.0974 58.5769 50.1813 65.2191L47.7191 71.5119C46.3211 70.7777 44.9646 71.2534 44.3014 72.9484L51.0114 81.3438C51.6746 79.6488 51.4579 77.2115 50.596 75.107L53.0582 68.8141C57.9381 73.3919 63.6369 71.9585 66.3453 65.0363L67.628 61.7579C67.9378 60.9662 67.763 59.7977 67.2277 59.1318Z"
        fill="white" />
    <path opacity="0.5"
        d="M1.16653 150.871C0.545571 150.594 0.0533692 150.9 0.118628 151.601L0.54796 156.21C0.613219 156.911 1.17159 157.715 1.82942 157.988C2.45038 158.265 2.94269 157.959 2.87743 157.258L2.44809 152.648C2.34939 151.988 1.79092 151.185 1.16653 150.871ZM5.8289 153.003C5.20794 152.726 4.71574 153.032 4.781 153.733L5.21033 158.343C5.27559 159.044 5.83395 159.847 6.49179 160.121C7.11274 160.398 7.60495 160.091 7.53969 159.391L7.11035 154.781C7.01165 154.121 6.45329 153.317 5.8289 153.003ZM10.4947 155.172C9.87375 154.896 9.38143 155.202 9.44669 155.902L9.87602 160.512C9.94128 161.213 10.4998 162.016 11.1576 162.29C11.7786 162.567 12.2708 162.261 12.2055 161.56L11.7762 156.95C11.7109 156.249 11.1157 155.449 10.4947 155.172ZM14.8135 153.617C14.1925 153.34 13.7003 153.646 13.7656 154.347L14.8819 166.332C14.9471 167.033 15.5055 167.837 16.1633 168.11C16.7843 168.387 17.2766 168.081 17.2113 167.38L16.0951 155.395C16.0332 154.731 15.4379 153.931 14.8135 153.617ZM19.8193 159.437C19.1984 159.16 18.7061 159.467 18.7713 160.167L19.2007 164.777C19.2659 165.478 19.8244 166.281 20.4822 166.555C21.1032 166.832 21.5954 166.525 21.5301 165.825L21.1008 161.215C21.039 160.551 20.4437 159.751 19.8193 159.437ZM24.485 161.607C23.8641 161.33 23.3719 161.636 23.4371 162.337L23.8665 166.946C23.9317 167.647 24.4901 168.45 25.1479 168.724C25.7689 169.001 26.2612 168.695 26.1959 167.994L25.7666 163.384C25.7013 162.684 25.1429 161.88 24.485 161.607ZM29.1474 163.739C28.5264 163.462 28.0342 163.768 28.0995 164.469L28.5288 169.079C28.5941 169.779 29.1525 170.583 29.8103 170.856C30.4312 171.133 30.9234 170.827 30.8582 170.126L30.4289 165.517C30.367 164.853 29.8087 164.049 29.1474 163.739ZM33.7548 165.281C33.1339 165.004 32.6415 165.311 32.7068 166.011L33.2529 171.875C33.3182 172.576 33.8767 173.379 34.5345 173.653C35.1554 173.93 35.6476 173.623 35.5824 172.923L35.0363 167.059C34.971 166.358 34.4127 165.555 33.7548 165.281ZM38.2548 165.271C37.6338 164.994 37.1415 165.301 37.2068 166.001L38.1513 176.143C38.2166 176.843 38.775 177.647 39.4329 177.92C40.0538 178.197 40.546 177.891 40.4808 177.191L39.5362 167.049C39.4375 166.389 38.8792 165.585 38.2548 165.271ZM42.5461 163.421C41.9251 163.144 41.4329 163.45 41.4982 164.151L43.1846 182.258C43.2499 182.959 43.8082 183.762 44.4661 184.036C45.087 184.313 45.5793 184.006 45.5141 183.306L43.8277 165.199C43.729 164.538 43.1705 163.735 42.5461 163.421ZM46.6898 159.985C46.0689 159.708 45.5767 160.014 45.6419 160.715L48.3725 190.033C48.4377 190.733 48.9961 191.537 49.6539 191.81C50.2749 192.087 50.7671 191.781 50.7018 191.08L47.9713 161.763C47.906 161.062 47.3108 160.262 46.6898 159.985ZM51.5068 163.777C50.8858 163.5 50.3935 163.806 50.4587 164.507L52.8836 190.542C52.9489 191.243 53.5074 192.047 54.1652 192.32C54.7861 192.597 55.2783 192.291 55.2131 191.59L52.7882 165.555C52.723 164.854 52.1277 164.054 51.5068 163.777ZM55.7637 161.558C55.1428 161.281 54.6506 161.587 54.7158 162.288L57.9479 196.99C58.0131 197.69 58.5715 198.494 59.2293 198.767C59.8503 199.044 60.3426 198.738 60.2773 198.037L57.0453 163.335C56.9835 162.672 56.3881 161.871 55.7637 161.558ZM59.4987 153.733C58.8778 153.456 58.3855 153.762 58.4507 154.463L63.5443 209.153C63.6096 209.853 64.1681 210.657 64.8259 210.93C65.4469 211.207 65.9391 210.901 65.8738 210.201L60.7802 155.511C60.7149 154.81 60.1566 154.007 59.4987 153.733ZM63.7042 150.961C63.0832 150.684 62.591 150.99 62.6563 151.691L68.6635 216.19C68.7288 216.891 69.2871 217.694 69.945 217.968C70.5659 218.245 71.0582 217.938 70.993 217.238L64.9858 152.738C64.9205 152.038 64.362 151.234 63.7042 150.961ZM68.6963 156.633C68.0753 156.356 67.5831 156.663 67.6484 157.363L72.9996 214.819C73.0649 215.52 73.6232 216.323 74.281 216.597C74.902 216.874 75.3942 216.567 75.3289 215.867L69.9777 158.411C69.9125 157.71 69.3541 156.907 68.6963 156.633ZM72.7772 152.124C72.1563 151.847 71.6641 152.154 71.7293 152.854L78.317 223.586C78.3823 224.287 78.9406 225.09 79.5985 225.364C80.2194 225.641 80.7117 225.334 80.6465 224.634L74.0588 153.902C73.9601 153.242 73.4016 152.438 72.7772 152.124ZM78.3532 164.066C77.7323 163.789 77.2401 164.095 77.3053 164.796L82.0726 215.983C82.1379 216.683 82.6962 217.487 83.3541 217.76C83.975 218.037 84.4672 217.731 84.402 217.03L79.6347 165.844C79.5325 165.147 78.9742 164.343 78.3532 164.066ZM83.4964 171.362C82.8755 171.085 82.3832 171.391 82.4484 172.092L86.254 212.952C86.3193 213.653 86.8778 214.456 87.5356 214.73C88.1566 215.007 88.6488 214.701 88.5835 214L84.7779 173.139C84.6792 172.479 84.1208 171.675 83.4964 171.362ZM88.667 178.952C88.0461 178.675 87.5539 178.981 87.6191 179.682L90.4081 209.627C90.4733 210.327 91.0317 211.131 91.6895 211.404C92.3105 211.681 92.8028 211.375 92.7375 210.674L89.9486 180.73C89.8868 180.066 89.2914 179.266 88.667 178.952ZM93.6694 184.735C93.0485 184.458 92.5562 184.764 92.6214 185.465L94.7372 208.182C94.8024 208.883 95.3609 209.686 96.0187 209.96C96.6397 210.236 97.1319 209.93 97.0666 209.23L94.9509 186.513C94.8856 185.812 94.2904 185.012 93.6694 184.735ZM98.5515 189.228C97.9306 188.951 97.4384 189.257 97.5036 189.958L99.1832 207.991C99.2484 208.692 99.8068 209.495 100.465 209.769C101.086 210.046 101.578 209.739 101.513 209.039L99.8331 191.005C99.7678 190.305 99.2093 189.501 98.5515 189.228ZM103.365 192.983C102.744 192.706 102.252 193.012 102.317 193.713L103.698 208.538C103.763 209.238 104.321 210.042 104.979 210.315C105.6 210.592 106.092 210.286 106.027 209.585L104.646 194.761C104.581 194.06 104.023 193.256 103.365 192.983ZM107.787 192.534C107.166 192.257 106.674 192.563 106.739 193.264L108.601 213.251C108.666 213.952 109.224 214.756 109.882 215.029C110.503 215.306 110.995 215 110.93 214.299L109.068 194.311C109.003 193.611 108.445 192.807 107.787 192.534ZM112.861 199.091C112.24 198.815 111.748 199.121 111.813 199.821L112.847 210.922C112.913 211.622 113.471 212.426 114.129 212.699C114.75 212.976 115.242 212.67 115.177 211.969L114.143 200.869C114.081 200.205 113.523 199.402 112.861 199.091ZM117.605 201.7C116.984 201.423 116.492 201.729 116.557 202.43L117.509 212.645C117.574 213.346 118.132 214.149 118.79 214.423C119.411 214.7 119.903 214.393 119.838 213.693L118.887 203.478C118.788 202.817 118.23 202.014 117.605 201.7ZM122.618 207.594C121.997 207.317 121.505 207.623 121.57 208.324L121.824 211.053C121.889 211.753 122.448 212.557 123.106 212.83C123.727 213.107 124.219 212.801 124.154 212.1L123.899 209.372C123.797 208.674 123.239 207.871 122.618 207.594ZM127.225 209.136C126.604 208.859 126.112 209.165 126.177 209.866L126.541 213.775C126.607 214.476 127.165 215.279 127.823 215.553C128.444 215.83 128.936 215.524 128.871 214.823L128.507 210.914C128.445 210.25 127.85 209.45 127.225 209.136ZM131.41 206.143C130.789 205.866 130.297 206.172 130.362 206.873L131.685 221.07C131.75 221.771 132.308 222.575 132.966 222.848C133.587 223.125 134.079 222.819 134.014 222.118L132.692 207.92C132.626 207.22 132.035 206.456 131.41 206.143ZM135.818 205.546C135.197 205.269 134.705 205.575 134.77 206.276L136.608 226.006C136.673 226.706 137.232 227.51 137.889 227.783C138.51 228.06 139.003 227.754 138.937 227.053L137.1 207.324C137.035 206.623 136.476 205.82 135.818 205.546ZM140.044 202.995C139.423 202.718 138.931 203.024 138.997 203.725L141.706 232.821C141.772 233.522 142.33 234.326 142.988 234.599C143.609 234.876 144.101 234.57 144.036 233.869L141.326 204.773C141.261 204.072 140.702 203.268 140.044 202.995ZM144.03 197.862C143.409 197.586 142.917 197.892 142.982 198.592L147.045 242.219C147.111 242.92 147.669 243.723 148.327 243.996C148.948 244.273 149.44 243.967 149.375 243.267L145.312 199.64C145.246 198.939 144.688 198.136 144.03 197.862ZM147.927 191.771C147.306 191.494 146.813 191.8 146.879 192.501L152.474 252.575C152.539 253.276 153.097 254.079 153.755 254.353C154.376 254.63 154.868 254.323 154.803 253.623L149.208 193.549C149.146 192.885 148.588 192.081 147.927 191.771ZM152.756 195.301C152.135 195.024 151.643 195.331 151.708 196.031L157.049 253.376C157.115 254.077 157.673 254.881 158.331 255.154C158.952 255.431 159.444 255.125 159.379 254.424L154.038 197.079C153.936 196.382 153.381 195.615 152.756 195.301ZM156.409 186.592C155.788 186.315 155.296 186.621 155.361 187.322L162.725 266.388C162.79 267.088 163.349 267.892 164.006 268.165C164.627 268.442 165.119 268.136 165.054 267.435L157.69 188.369C157.588 187.672 157.03 186.869 156.409 186.592ZM161.59 194.293C160.969 194.016 160.477 194.322 160.542 195.023L166.869 262.952C166.934 263.652 167.492 264.456 168.15 264.729C168.771 265.006 169.263 264.7 169.198 263.999L162.871 196.07C162.806 195.37 162.211 194.57 161.59 194.293ZM165.5 188.349C164.879 188.072 164.387 188.378 164.452 189.079L172.286 273.197C172.352 273.898 172.91 274.701 173.568 274.975C174.189 275.252 174.681 274.946 174.616 274.245L166.781 190.127C166.716 189.426 166.121 188.626 165.5 188.349ZM169.482 183.179C168.861 182.903 168.369 183.209 168.434 183.909L177.629 282.631C177.694 283.332 178.252 284.135 178.91 284.409C179.531 284.686 180.024 284.38 179.958 283.679L170.764 184.957C170.702 184.293 170.107 183.493 169.482 183.179ZM174.928 193.72C174.307 193.443 173.814 193.749 173.88 194.45L181.512 276.392C181.577 277.093 182.135 277.897 182.793 278.17C183.414 278.447 183.906 278.141 183.841 277.44L176.209 195.498C176.144 194.797 175.589 194.03 174.928 193.72ZM180.521 205.846C179.9 205.569 179.408 205.876 179.473 206.576L185.243 268.531C185.308 269.232 185.867 270.035 186.525 270.309C187.146 270.586 187.638 270.279 187.572 269.579L181.802 207.624C181.74 206.96 181.182 206.157 180.521 205.846ZM185.015 206.172C184.394 205.895 183.902 206.201 183.967 206.902L190.077 272.507C190.142 273.208 190.701 274.011 191.359 274.285C191.98 274.562 192.472 274.256 192.407 273.555L186.296 207.949C186.234 207.286 185.676 206.482 185.015 206.172ZM190.629 218.519C190.008 218.242 189.515 218.549 189.581 219.249L193.795 264.498C193.86 265.199 194.419 266.002 195.076 266.276C195.697 266.553 196.19 266.247 196.124 265.546L191.91 220.297C191.845 219.596 191.286 218.793 190.629 218.519ZM196.241 230.458C195.62 230.181 195.128 230.487 195.193 231.188L197.58 256.818C197.646 257.518 198.204 258.322 198.862 258.595C199.483 258.872 199.975 258.566 199.91 257.866L197.523 232.235C197.421 231.538 196.862 230.735 196.241 230.458ZM201.426 238.196C200.805 237.919 200.312 238.225 200.378 238.926L201.724 253.382C201.789 254.082 202.348 254.886 203.006 255.159C203.627 255.436 204.119 255.13 204.054 254.429L202.707 239.973C202.605 239.276 202.047 238.473 201.426 238.196ZM206.373 243.389C205.752 243.112 205.26 243.418 205.325 244.119L206.101 252.453C206.167 253.154 206.725 253.957 207.383 254.231C208.004 254.508 208.496 254.202 208.431 253.501L207.655 245.167C207.593 244.503 206.997 243.703 206.373 243.389ZM211.187 247.144C210.566 246.867 210.073 247.173 210.139 247.874L210.613 252.963C210.678 253.664 211.236 254.467 211.894 254.741C212.515 255.018 213.007 254.711 212.942 254.011L212.468 248.922C212.406 248.258 211.811 247.458 211.187 247.144ZM215.921 250.051C215.3 249.774 214.808 250.08 214.873 250.781L215.21 254.395C215.275 255.095 215.833 255.899 216.491 256.172C217.112 256.449 217.604 256.143 217.539 255.443L217.203 251.828C217.137 251.128 216.579 250.324 215.921 250.051ZM220.604 252.404C219.983 252.127 219.491 252.434 219.556 253.134L219.855 256.343C219.92 257.043 220.478 257.847 221.136 258.12C221.757 258.397 222.249 258.091 222.184 257.39L221.885 254.182C221.82 253.481 221.262 252.678 220.604 252.404ZM225.249 254.352C224.628 254.075 224.136 254.382 224.201 255.082L224.534 258.659C224.6 259.36 225.158 260.164 225.816 260.437C226.437 260.714 226.929 260.408 226.864 259.707L226.531 256.13C226.465 255.429 225.907 254.626 225.249 254.352ZM229.843 255.747C229.222 255.47 228.73 255.777 228.795 256.477L229.265 261.529C229.331 262.23 229.889 263.034 230.547 263.307C231.168 263.584 231.66 263.278 231.595 262.577L231.124 257.525C231.062 256.861 230.504 256.058 229.843 255.747ZM234.415 256.512C233.794 256.235 233.302 256.541 233.367 257.242L234.098 265.097C234.164 265.797 234.722 266.601 235.38 266.874C236.001 267.151 236.493 266.845 236.428 266.144L235.696 258.29C235.594 257.592 235.036 256.789 234.415 256.512ZM238.878 256.505C238.257 256.228 237.765 256.535 237.83 257.235L238.963 269.405C239.029 270.106 239.587 270.909 240.245 271.183C240.866 271.46 241.358 271.153 241.293 270.453L240.159 258.283C240.057 257.586 239.499 256.782 238.878 256.505ZM242.939 252.184C242.318 251.907 241.826 252.213 241.891 252.914L244.223 277.954C244.289 278.655 244.847 279.458 245.505 279.732C246.126 280.009 246.618 279.703 246.553 279.002L244.221 253.962C244.159 253.298 243.564 252.498 242.939 252.184ZM248.027 258.889C247.406 258.612 246.914 258.919 246.98 259.619L248.463 275.551C248.529 276.251 249.087 277.055 249.745 277.328C250.366 277.605 250.858 277.299 250.793 276.598L249.309 260.667C249.244 259.966 248.652 259.203 248.027 258.889ZM252.463 258.588C251.842 258.311 251.35 258.617 251.415 259.318L253.356 280.154C253.421 280.854 253.979 281.658 254.637 281.931C255.258 282.208 255.75 281.902 255.685 281.201L253.745 260.365C253.683 259.702 253.124 258.898 252.463 258.588ZM256.607 255.152C255.986 254.875 255.494 255.181 255.559 255.882L258.54 287.892C258.605 288.592 259.164 289.396 259.822 289.669C260.443 289.946 260.935 289.64 260.87 288.939L257.888 256.929C257.826 256.266 257.268 255.462 256.607 255.152ZM261.832 263.332C261.211 263.055 260.719 263.361 260.784 264.062L262.639 283.976C262.704 284.677 263.263 285.48 263.921 285.754C264.542 286.031 265.034 285.724 264.969 285.024L263.114 265.11C263.052 264.446 262.494 263.642 261.832 263.332ZM265.725 257.204C265.104 256.927 264.612 257.233 264.677 257.934L268.074 294.406C268.14 295.107 268.698 295.91 269.356 296.184C269.977 296.461 270.469 296.154 270.404 295.454L267.007 258.981C266.942 258.281 266.383 257.477 265.725 257.204ZM270.376 258.816C269.755 258.54 269.263 258.846 269.328 259.546L272.825 297.088C272.89 297.789 273.449 298.592 274.106 298.866C274.727 299.143 275.22 298.836 275.155 298.136L271.658 260.594C271.556 259.897 270.997 259.093 270.376 258.816ZM279.684 262.897C279.063 262.62 278.571 262.926 278.636 263.627L282.17 301.574C282.236 302.275 282.794 303.078 283.452 303.352C284.073 303.629 284.565 303.323 284.5 302.622L280.965 264.675C280.904 264.011 280.308 263.211 279.684 262.897ZM274.328 253.315C273.707 253.038 273.215 253.344 273.28 254.045L278.198 306.854C278.264 307.555 278.822 308.358 279.48 308.632C280.101 308.909 280.593 308.603 280.528 307.902L275.609 255.093C275.511 254.433 274.952 253.629 274.328 253.315ZM285.123 273.364C284.502 273.087 284.009 273.393 284.075 274.094L286.063 295.446C286.129 296.147 286.687 296.95 287.345 297.224C287.966 297.501 288.458 297.194 288.393 296.494L286.404 275.141C286.339 274.441 285.744 273.641 285.123 273.364ZM289.263 269.891C288.642 269.614 288.149 269.92 288.215 270.621L291.244 303.147C291.309 303.848 291.868 304.651 292.526 304.925C293.147 305.202 293.639 304.895 293.574 304.195L290.544 271.668C290.482 271.005 289.887 270.205 289.263 269.891ZM294.135 274.273C293.514 273.996 293.021 274.302 293.087 275.003L295.704 303.103C295.769 303.804 296.327 304.608 296.985 304.881C297.606 305.158 298.099 304.852 298.033 304.151L295.416 276.05C295.351 275.35 294.792 274.546 294.135 274.273ZM299 278.581C298.379 278.304 297.886 278.61 297.952 279.311L300.164 303.06C300.229 303.761 300.787 304.564 301.445 304.838C302.066 305.115 302.558 304.809 302.493 304.108L300.281 280.359C300.216 279.658 299.657 278.854 299 278.581ZM304.181 286.282C303.56 286.005 303.067 286.311 303.133 287.012L304.311 299.661C304.376 300.362 304.934 301.165 305.592 301.439C306.213 301.715 306.705 301.409 306.64 300.709L305.462 288.06C305.397 287.359 304.838 286.555 304.181 286.282ZM309.021 289.923C308.4 289.646 307.907 289.952 307.973 290.653L308.873 300.315C308.938 301.015 309.496 301.819 310.154 302.092C310.775 302.369 311.267 302.063 311.202 301.362L310.302 291.7C310.2 291.003 309.642 290.2 309.021 289.923ZM313.443 289.474C312.822 289.197 312.329 289.503 312.394 290.204L313.775 305.029C313.84 305.729 314.399 306.533 315.057 306.806C315.678 307.083 316.17 306.777 316.105 306.076L314.724 291.251C314.625 290.591 314.067 289.788 313.443 289.474ZM318.524 296.105C317.903 295.828 317.411 296.134 317.476 296.835L318.022 302.699C318.087 303.399 318.646 304.203 319.303 304.476C319.924 304.753 320.417 304.447 320.352 303.747L319.805 297.883C319.707 297.223 319.148 296.419 318.524 296.105ZM323.234 298.754C322.613 298.477 322.121 298.783 322.186 299.484L322.636 304.315C322.702 305.016 323.26 305.819 323.918 306.093C324.539 306.37 325.031 306.063 324.966 305.363L324.516 300.532C324.454 299.868 323.859 299.068 323.234 298.754ZM327.581 297.494C326.96 297.217 326.467 297.523 326.533 298.223L327.618 309.877C327.683 310.578 328.242 311.381 328.899 311.655C329.52 311.932 330.013 311.625 329.947 310.925L328.862 299.271C328.8 298.607 328.205 297.807 327.581 297.494Z"
        fill="white" />
    <defs>
        <linearGradient id="paint0_linear_1_750" x1="85.8477" y1="-41.2645" x2="197.523" y2="171.68"
            gradientUnits="userSpaceOnUse">
            <stop offset="0.010101" stop-color="#9F19AB" />
            <stop offset="0.4293" stop-color="#5F27BD" />
            <stop offset="0.904" stop-color="#3D065F" />
        </linearGradient>
        <linearGradient id="paint1_linear_1_750" x1="87.5863" y1="-37.8876" x2="196.719"
            y2="170.209" gradientUnits="userSpaceOnUse">
            <stop offset="0.010101" stop-color="#9F19AB" />
            <stop offset="0.4293" stop-color="#5F27BD" />
            <stop offset="0.904" stop-color="#3D065F" />
        </linearGradient>
        <linearGradient id="paint2_linear_1_750" x1="89.3244" y1="-34.511" x2="195.915" y2="168.738"
            gradientUnits="userSpaceOnUse">
            <stop offset="0.010101" stop-color="#9F19AB" />
            <stop offset="0.4293" stop-color="#5F27BD" />
            <stop offset="0.904" stop-color="#3D065F" />
        </linearGradient>
        <linearGradient id="paint3_linear_1_750" x1="91.0632" y1="-31.1341" x2="195.112"
            y2="167.267" gradientUnits="userSpaceOnUse">
            <stop offset="0.010101" stop-color="#9F19AB" />
            <stop offset="0.4293" stop-color="#5F27BD" />
            <stop offset="0.904" stop-color="#3D065F" />
        </linearGradient>
        <linearGradient id="paint4_linear_1_750" x1="92.8016" y1="-27.7577" x2="194.308"
            y2="165.796" gradientUnits="userSpaceOnUse">
            <stop offset="0.010101" stop-color="#9F19AB" />
            <stop offset="0.4293" stop-color="#5F27BD" />
            <stop offset="0.904" stop-color="#3D065F" />
        </linearGradient>
        <linearGradient id="paint5_linear_1_750" x1="94.5412" y1="-24.3812" x2="193.506"
            y2="164.325" gradientUnits="userSpaceOnUse">
            <stop offset="0.010101" stop-color="#9F19AB" />
            <stop offset="0.4293" stop-color="#5F27BD" />
            <stop offset="0.904" stop-color="#3D065F" />
        </linearGradient>
        <linearGradient id="paint6_linear_1_750" x1="96.2799" y1="-21.0049" x2="192.702"
            y2="162.854" gradientUnits="userSpaceOnUse">
            <stop offset="0.010101" stop-color="#9F19AB" />
            <stop offset="0.4293" stop-color="#5F27BD" />
            <stop offset="0.904" stop-color="#3D065F" />
        </linearGradient>
        <linearGradient id="paint7_linear_1_750" x1="98.0199" y1="-17.629" x2="191.9" y2="161.383"
            gradientUnits="userSpaceOnUse">
            <stop offset="0.010101" stop-color="#9F19AB" />
            <stop offset="0.4293" stop-color="#5F27BD" />
            <stop offset="0.904" stop-color="#3D065F" />
        </linearGradient>
        <linearGradient id="paint8_linear_1_750" x1="99.7595" y1="-14.2532" x2="191.098"
            y2="159.912" gradientUnits="userSpaceOnUse">
            <stop offset="0.010101" stop-color="#9F19AB" />
            <stop offset="0.4293" stop-color="#5F27BD" />
            <stop offset="0.904" stop-color="#3D065F" />
        </linearGradient>
        <linearGradient id="paint9_linear_1_750" x1="101.499" y1="-10.8774" x2="190.295" y2="158.44"
            gradientUnits="userSpaceOnUse">
            <stop offset="0.010101" stop-color="#9F19AB" />
            <stop offset="0.4293" stop-color="#5F27BD" />
            <stop offset="0.904" stop-color="#3D065F" />
        </linearGradient>
        <linearGradient id="paint10_linear_1_750" x1="103.24" y1="-7.50232" x2="189.494"
            y2="156.969" gradientUnits="userSpaceOnUse">
            <stop offset="0.010101" stop-color="#9F19AB" />
            <stop offset="0.4293" stop-color="#5F27BD" />
            <stop offset="0.904" stop-color="#3D065F" />
        </linearGradient>
        <linearGradient id="paint11_linear_1_750" x1="104.981" y1="-4.12703" x2="188.693"
            y2="155.497" gradientUnits="userSpaceOnUse">
            <stop offset="0.010101" stop-color="#9F19AB" />
            <stop offset="0.4293" stop-color="#5F27BD" />
            <stop offset="0.904" stop-color="#3D065F" />
        </linearGradient>
        <linearGradient id="paint12_linear_1_750" x1="106.723" y1="-0.752368" x2="187.893"
            y2="154.025" gradientUnits="userSpaceOnUse">
            <stop offset="0.010101" stop-color="#9F19AB" />
            <stop offset="0.4293" stop-color="#5F27BD" />
            <stop offset="0.904" stop-color="#3D065F" />
        </linearGradient>
        <linearGradient id="paint13_linear_1_750" x1="108.464" y1="2.62222" x2="187.093"
            y2="152.553" gradientUnits="userSpaceOnUse">
            <stop offset="0.010101" stop-color="#9F19AB" />
            <stop offset="0.4293" stop-color="#5F27BD" />
            <stop offset="0.904" stop-color="#3D065F" />
        </linearGradient>
        <linearGradient id="paint14_linear_1_750" x1="110.207" y1="5.99606" x2="186.295" y2="151.08"
            gradientUnits="userSpaceOnUse">
            <stop offset="0.010101" stop-color="#9F19AB" />
            <stop offset="0.4293" stop-color="#5F27BD" />
            <stop offset="0.904" stop-color="#3D065F" />
        </linearGradient>
        <linearGradient id="paint15_linear_1_750" x1="111.951" y1="9.36954" x2="185.496"
            y2="149.607" gradientUnits="userSpaceOnUse">
            <stop offset="0.010101" stop-color="#9F19AB" />
            <stop offset="0.4293" stop-color="#5F27BD" />
            <stop offset="0.904" stop-color="#3D065F" />
        </linearGradient>
        <linearGradient id="paint16_linear_1_750" x1="113.696" y1="12.7425" x2="184.7" y2="148.134"
            gradientUnits="userSpaceOnUse">
            <stop offset="0.010101" stop-color="#9F19AB" />
            <stop offset="0.4293" stop-color="#5F27BD" />
            <stop offset="0.904" stop-color="#3D065F" />
        </linearGradient>
        <linearGradient id="paint17_linear_1_750" x1="115.441" y1="16.1148" x2="183.904" y2="146.66"
            gradientUnits="userSpaceOnUse">
            <stop offset="0.010101" stop-color="#9F19AB" />
            <stop offset="0.4293" stop-color="#5F27BD" />
            <stop offset="0.904" stop-color="#3D065F" />
        </linearGradient>
        <linearGradient id="paint18_linear_1_750" x1="117.188" y1="19.4865" x2="183.109"
            y2="145.186" gradientUnits="userSpaceOnUse">
            <stop offset="0.010101" stop-color="#9F19AB" />
            <stop offset="0.4293" stop-color="#5F27BD" />
            <stop offset="0.904" stop-color="#3D065F" />
        </linearGradient>
        <linearGradient id="paint19_linear_1_750" x1="118.936" y1="22.8572" x2="182.316"
            y2="143.711" gradientUnits="userSpaceOnUse">
            <stop offset="0.010101" stop-color="#9F19AB" />
            <stop offset="0.4293" stop-color="#5F27BD" />
            <stop offset="0.904" stop-color="#3D065F" />
        </linearGradient>
        <linearGradient id="paint20_linear_1_750" x1="120.687" y1="26.2265" x2="181.525"
            y2="142.235" gradientUnits="userSpaceOnUse">
            <stop offset="0.010101" stop-color="#9F19AB" />
            <stop offset="0.4293" stop-color="#5F27BD" />
            <stop offset="0.904" stop-color="#3D065F" />
        </linearGradient>
        <radialGradient id="paint21_radial_1_750" cx="0" cy="0" r="1" gradientUnits="userSpaceOnUse"
            gradientTransform="translate(156.746 288.525) scale(50.7734 25.8897)">
            <stop offset="0.1919" stop-color="#5F5C5D" />
            <stop offset="1" stop-color="white" />
        </radialGradient>
        <linearGradient id="paint22_linear_1_750" x1="102.902" y1="296.687" x2="193.237"
            y2="296.687" gradientUnits="userSpaceOnUse">
            <stop offset="0.010101" stop-color="#C1A1D5" />
            <stop offset="0.0487861" stop-color="#C8ABDA" />
            <stop offset="0.1149" stop-color="#DAC6E6" />
            <stop offset="0.1998" stop-color="#F7F2F9" />
            <stop offset="0.2222" stop-color="white" />
            <stop offset="0.2513" stop-color="#F9F5FB" />
            <stop offset="0.3001" stop-color="#E9DBF2" />
            <stop offset="0.3586" stop-color="#D1B4E3" />
            <stop offset="0.4264" stop-color="#B395D6" />
            <stop offset="0.4949" stop-color="#9C7DCB" />
            <stop offset="0.5583" stop-color="#8E6EC5" />
            <stop offset="0.6111" stop-color="#8969C3" />
            <stop offset="0.755" stop-color="#9471C6" />
            <stop offset="1" stop-color="#B086CC" />
        </linearGradient>
        <linearGradient id="paint23_linear_1_750" x1="202.252" y1="220.702" x2="129.541"
            y2="298.667" gradientUnits="userSpaceOnUse">
            <stop stop-color="#9F79C8" />
            <stop offset="0.1367" stop-color="#A580CB" />
            <stop offset="0.3288" stop-color="#B492D3" />
            <stop offset="0.5529" stop-color="#CDB0E1" />
            <stop offset="0.5808" stop-color="#D1B4E3" />
            <stop offset="0.7644" stop-color="#DBC4E9" />
            <stop offset="1" stop-color="#EBDEF3" />
        </linearGradient>
        <radialGradient id="paint24_radial_1_750" cx="0" cy="0" r="1" gradientUnits="userSpaceOnUse"
            gradientTransform="translate(133.629 301.527) scale(33.8473 33.8474)">
            <stop stop-color="white" />
            <stop offset="1" />
        </radialGradient>
        <radialGradient id="paint25_radial_1_750" cx="0" cy="0" r="1" gradientUnits="userSpaceOnUse"
            gradientTransform="translate(151.537 279.063) scale(14.6639 7.4772)">
            <stop offset="0.1919" stop-color="#C7BCD6" />
            <stop offset="1" stop-color="white" />
        </radialGradient>
        <linearGradient id="paint26_linear_1_750" x1="139.687" y1="246.165" x2="156.92" y2="246.165"
            gradientUnits="userSpaceOnUse">
            <stop offset="0.010101" stop-color="#C1A1D5" />
            <stop offset="0.0487861" stop-color="#C8ABDA" />
            <stop offset="0.1149" stop-color="#DAC6E6" />
            <stop offset="0.1998" stop-color="#F7F2F9" />
            <stop offset="0.2222" stop-color="white" />
            <stop offset="0.2513" stop-color="#F9F5FB" />
            <stop offset="0.3001" stop-color="#E9DBF2" />
            <stop offset="0.3586" stop-color="#D1B4E3" />
            <stop offset="0.4264" stop-color="#B395D6" />
            <stop offset="0.4949" stop-color="#9C7DCB" />
            <stop offset="0.5583" stop-color="#8E6EC5" />
            <stop offset="0.6111" stop-color="#8969C3" />
            <stop offset="0.755" stop-color="#9471C6" />
            <stop offset="1" stop-color="#B086CC" />
        </linearGradient>
        <linearGradient id="paint27_linear_1_750" x1="158.422" y1="224.28" x2="115.185" y2="124.965"
            gradientUnits="userSpaceOnUse">
            <stop stop-color="#8D6CC4" />
            <stop offset="0.0555556" stop-color="#A27CC9" />
            <stop offset="0.1616" stop-color="#B090D3" />
            <stop offset="0.3182" stop-color="#9B78C8" />
            <stop offset="1" stop-color="#B086CC" />
        </linearGradient>
        <radialGradient id="paint28_radial_1_750" cx="0" cy="0" r="1" gradientUnits="userSpaceOnUse"
            gradientTransform="translate(153.051 206.937) scale(21.2715 10.8465)">
            <stop offset="0.1919" stop-color="#C7BCD6" />
            <stop offset="1" stop-color="white" />
        </radialGradient>
        <linearGradient id="paint29_linear_1_750" x1="114.081" y1="101.666" x2="111.512"
            y2="134.414" gradientUnits="userSpaceOnUse">
            <stop stop-color="#9F79C8" />
            <stop offset="0.1409" stop-color="#A27DCA" />
            <stop offset="0.2725" stop-color="#AC88CF" />
            <stop offset="0.4" stop-color="#BC9BD7" />
            <stop offset="0.5202" stop-color="#D1B4E3" />
            <stop offset="0.6493" stop-color="#DBC4E9" />
            <stop offset="0.8997" stop-color="#F4EDF8" />
            <stop offset="1" stop-color="white" />
        </linearGradient>
        <linearGradient id="paint30_linear_1_750" x1="111.767" y1="120.334" x2="187.262"
            y2="120.334" gradientUnits="userSpaceOnUse">
            <stop stop-color="#25054D" />
            <stop offset="0.2172" stop-color="#45108A" />
            <stop offset="0.4192" stop-color="#25054D" />
            <stop offset="0.5555" stop-color="#270651" />
            <stop offset="0.6984" stop-color="#2E085E" />
            <stop offset="0.8438" stop-color="#390C73" />
            <stop offset="0.9646" stop-color="#45108A" />
        </linearGradient>
        <radialGradient id="paint31_radial_1_750" cx="0" cy="0" r="1" gradientUnits="userSpaceOnUse"
            gradientTransform="translate(133.006 81.9562) scale(85.0023 85.0023)">
            <stop stop-color="#972A74" />
            <stop offset="0.0412825" stop-color="#8A266A" />
            <stop offset="0.1941" stop-color="#601B4A" />
            <stop offset="0.35" stop-color="#3D112F" />
            <stop offset="0.5074" stop-color="#220A1B" />
            <stop offset="0.6667" stop-color="#0F040C" />
            <stop offset="0.8293" stop-color="#040103" />
            <stop offset="1" />
        </radialGradient>
        <linearGradient id="paint32_linear_1_750" x1="109.89" y1="152.181" x2="189.114" y2="152.181"
            gradientUnits="userSpaceOnUse">
            <stop offset="0.010101" stop-color="#C1A1D5" />
            <stop offset="0.0487861" stop-color="#C8ABDA" />
            <stop offset="0.1149" stop-color="#DAC6E6" />
            <stop offset="0.1998" stop-color="#F7F2F9" />
            <stop offset="0.2222" stop-color="white" />
            <stop offset="0.2513" stop-color="#F9F5FB" />
            <stop offset="0.3001" stop-color="#E9DBF2" />
            <stop offset="0.3586" stop-color="#D1B4E3" />
            <stop offset="0.4264" stop-color="#B395D6" />
            <stop offset="0.4949" stop-color="#9C7DCB" />
            <stop offset="0.5583" stop-color="#8E6EC5" />
            <stop offset="0.6111" stop-color="#8969C3" />
            <stop offset="0.755" stop-color="#9471C6" />
            <stop offset="1" stop-color="#B086CC" />
        </linearGradient>
        <linearGradient id="paint33_linear_1_750" x1="160.88" y1="216.277" x2="162.057" y2="216.277"
            gradientUnits="userSpaceOnUse">
            <stop stop-color="#25054D" />
            <stop offset="0.2172" stop-color="#45108A" />
            <stop offset="0.4192" stop-color="#25054D" />
            <stop offset="0.5555" stop-color="#270651" />
            <stop offset="0.6984" stop-color="#2E085E" />
            <stop offset="0.8438" stop-color="#390C73" />
            <stop offset="0.9646" stop-color="#45108A" />
        </linearGradient>
        <linearGradient id="paint34_linear_1_750" x1="187.987" y1="213.07" x2="157.621" y2="125.119"
            gradientUnits="userSpaceOnUse">
            <stop stop-color="#8D6CC4" />
            <stop offset="0.0555556" stop-color="#A27CC9" />
            <stop offset="0.1616" stop-color="#B090D3" />
            <stop offset="0.3182" stop-color="#9B78C8" />
            <stop offset="1" stop-color="#B086CC" />
        </linearGradient>
        <linearGradient id="paint35_linear_1_750" x1="62.578" y1="272.617" x2="173.54" y2="115.95"
            gradientUnits="userSpaceOnUse">
            <stop stop-color="#9F79C8" />
            <stop offset="0.1409" stop-color="#A27DCA" />
            <stop offset="0.2725" stop-color="#AC88CF" />
            <stop offset="0.4" stop-color="#BC9BD7" />
            <stop offset="0.5202" stop-color="#D1B4E3" />
            <stop offset="0.6493" stop-color="#DBC4E9" />
            <stop offset="0.8997" stop-color="#F4EDF8" />
            <stop offset="1" stop-color="white" />
        </linearGradient>
        <linearGradient id="paint36_linear_1_750" x1="191.517" y1="123.19" x2="177.391" y2="158.935"
            gradientUnits="userSpaceOnUse">
            <stop stop-color="#9F79C8" />
            <stop offset="0.1409" stop-color="#A27DCA" />
            <stop offset="0.2725" stop-color="#AC88CF" />
            <stop offset="0.4" stop-color="#BC9BD7" />
            <stop offset="0.5202" stop-color="#D1B4E3" />
            <stop offset="0.6493" stop-color="#DBC4E9" />
            <stop offset="0.8997" stop-color="#F4EDF8" />
            <stop offset="1" stop-color="white" />
        </linearGradient>
        <linearGradient id="paint37_linear_1_750" x1="171.421" y1="84.3436" x2="135.034"
            y2="149.198" gradientUnits="userSpaceOnUse">
            <stop stop-color="#9F79C8" />
            <stop offset="0.1367" stop-color="#A580CB" />
            <stop offset="0.3288" stop-color="#B492D3" />
            <stop offset="0.5529" stop-color="#CDB0E1" />
            <stop offset="0.5808" stop-color="#D1B4E3" />
            <stop offset="0.7644" stop-color="#DBC4E9" />
            <stop offset="1" stop-color="#EBDEF3" />
        </linearGradient>
        <linearGradient id="paint38_linear_1_750" x1="178.25" y1="167.366" x2="191.088" y2="145.631"
            gradientUnits="userSpaceOnUse">
            <stop offset="0.010101" stop-color="#C1A1D5" />
            <stop offset="0.0487861" stop-color="#C8ABDA" />
            <stop offset="0.1149" stop-color="#DAC6E6" />
            <stop offset="0.1998" stop-color="#F7F2F9" />
            <stop offset="0.2222" stop-color="white" />
            <stop offset="0.2513" stop-color="#F9F5FB" />
            <stop offset="0.3001" stop-color="#E9DBF2" />
            <stop offset="0.3586" stop-color="#D1B4E3" />
            <stop offset="0.4264" stop-color="#B395D6" />
            <stop offset="0.4949" stop-color="#9C7DCB" />
            <stop offset="0.5583" stop-color="#8E6EC5" />
            <stop offset="0.6111" stop-color="#8969C3" />
            <stop offset="0.755" stop-color="#9471C6" />
            <stop offset="1" stop-color="#B086CC" />
        </linearGradient>
        <radialGradient id="paint39_radial_1_750" cx="0" cy="0" r="1" gradientUnits="userSpaceOnUse"
            gradientTransform="translate(183.38 161.775) rotate(180) scale(7.00458 7.00458)">
            <stop stop-color="white" />
            <stop offset="1" />
        </radialGradient>
        <radialGradient id="paint40_radial_1_750" cx="0" cy="0" r="1" gradientUnits="userSpaceOnUse"
            gradientTransform="translate(139.829 52.7491) scale(54.3031 41.6457)">
            <stop offset="0.1061" stop-color="#972A74" />
            <stop offset="0.1707" stop-color="#7A225D" />
            <stop offset="0.2669" stop-color="#541741" />
            <stop offset="0.3676" stop-color="#360F29" />
            <stop offset="0.4728" stop-color="#1E0817" />
            <stop offset="0.5842" stop-color="#0D040A" />
            <stop offset="0.7062" stop-color="#030102" />
            <stop offset="0.8586" />
        </radialGradient>
        <radialGradient id="paint41_radial_1_750" cx="0" cy="0" r="1" gradientUnits="userSpaceOnUse"
            gradientTransform="translate(136.936 142.775) scale(29.6629 29.6629)">
            <stop stop-color="white" />
            <stop offset="1" />
        </radialGradient>
        <linearGradient id="paint42_linear_1_750" x1="28.1154" y1="40.1516" x2="94.1724"
            y2="65.9976" gradientUnits="userSpaceOnUse">
            <stop offset="0.0354" stop-color="#7428D3" />
            <stop offset="0.3196" stop-color="#8322CE" />
            <stop offset="0.868" stop-color="#AC13C3" />
            <stop offset="0.9848" stop-color="#B510C0" />
            <stop offset="1" stop-color="#B510C0" />
        </linearGradient>
        <linearGradient id="paint43_linear_1_750" x1="28.2995" y1="40.3904" x2="93.3211"
            y2="65.8313" gradientUnits="userSpaceOnUse">
            <stop offset="0.0354" stop-color="#7827CF" />
            <stop offset="0.3091" stop-color="#8723CC" />
            <stop offset="0.8371" stop-color="#B01AC4" />
            <stop offset="0.9848" stop-color="#BC17C1" />
            <stop offset="1" stop-color="#BC18C1" />
        </linearGradient>
        <linearGradient id="paint44_linear_1_750" x1="28.4745" y1="40.6114" x2="92.4885" y2="65.658"
            gradientUnits="userSpaceOnUse">
            <stop offset="0.0354" stop-color="#7C25CC" />
            <stop offset="0.3025" stop-color="#8B24CA" />
            <stop offset="0.8179" stop-color="#B420C4" />
            <stop offset="0.9848" stop-color="#C21FC2" />
            <stop offset="1" stop-color="#C21FC3" />
        </linearGradient>
        <linearGradient id="paint45_linear_1_750" x1="28.6204" y1="40.814" x2="91.6734" y2="65.4847"
            gradientUnits="userSpaceOnUse">
            <stop offset="0.0354" stop-color="#8024C8" />
            <stop offset="0.2933" stop-color="#8F24C7" />
            <stop offset="0.7909" stop-color="#B826C5" />
            <stop offset="0.9848" stop-color="#C926C4" />
            <stop offset="1" stop-color="#C927C4" />
        </linearGradient>
        <linearGradient id="paint46_linear_1_750" x1="28.7482" y1="41.0066" x2="90.877" y2="65.3156"
            gradientUnits="userSpaceOnUse">
            <stop offset="0.0354" stop-color="#8423C4" />
            <stop offset="0.2875" stop-color="#9325C4" />
            <stop offset="0.7739" stop-color="#BC2BC5" />
            <stop offset="0.9848" stop-color="#CF2EC5" />
            <stop offset="1" stop-color="#D02EC5" />
        </linearGradient>
        <linearGradient id="paint47_linear_1_750" x1="28.8453" y1="41.1854" x2="90.1048"
            y2="65.1543" gradientUnits="userSpaceOnUse">
            <stop offset="0.0354" stop-color="#8821C1" />
            <stop offset="0.2794" stop-color="#9725C2" />
            <stop offset="0.75" stop-color="#C02FC5" />
            <stop offset="0.9848" stop-color="#D635C6" />
            <stop offset="1" stop-color="#D736C6" />
        </linearGradient>
        <linearGradient id="paint48_linear_1_750" x1="28.9018" y1="41.3483" x2="89.3664"
            y2="65.0061" gradientUnits="userSpaceOnUse">
            <stop offset="0.0354" stop-color="#8B20BD" />
            <stop offset="0.2718" stop-color="#9A26BF" />
            <stop offset="0.7278" stop-color="#C334C4" />
            <stop offset="0.9848" stop-color="#DC3DC7" />
            <stop offset="1" stop-color="#DD3DC8" />
        </linearGradient>
        <linearGradient id="paint49_linear_1_750" x1="29.0349" y1="41.5411" x2="88.6803"
            y2="64.8784" gradientUnits="userSpaceOnUse">
            <stop offset="0.0354" stop-color="#8F1EBA" />
            <stop offset="0.2647" stop-color="#9E25BD" />
            <stop offset="0.7071" stop-color="#C737C3" />
            <stop offset="0.9848" stop-color="#E344C8" />
            <stop offset="1" stop-color="#E445C9" />
        </linearGradient>
        <linearGradient id="paint50_linear_1_750" x1="28.9837" y1="41.662" x2="88.081" y2="64.7849"
            gradientUnits="userSpaceOnUse">
            <stop offset="0.0354" stop-color="#931DB6" />
            <stop offset="0.2603" stop-color="#A225B9" />
            <stop offset="0.6939" stop-color="#CB3BC2" />
            <stop offset="0.9848" stop-color="#E94CC9" />
            <stop offset="1" stop-color="#EB4CCA" />
        </linearGradient>
        <linearGradient id="paint51_linear_1_750" x1="28.7765" y1="41.722" x2="87.6322" y2="64.7503"
            gradientUnits="userSpaceOnUse">
            <stop offset="0.0354" stop-color="#971CB2" />
            <stop offset="0.2539" stop-color="#A626B6" />
            <stop offset="0.6753" stop-color="#CF3EC2" />
            <stop offset="0.9848" stop-color="#F053CB" />
            <stop offset="1" stop-color="#F254CB" />
        </linearGradient>
        <linearGradient id="paint52_linear_1_750" x1="28.311" y1="41.6813" x2="87.4275" y2="64.8117"
            gradientUnits="userSpaceOnUse">
            <stop offset="0.0354" stop-color="#9B1AAF" />
            <stop offset="0.2499" stop-color="#AA25B4" />
            <stop offset="0.6634" stop-color="#D342C1" />
            <stop offset="0.9848" stop-color="#F65BCC" />
            <stop offset="1" stop-color="#F85BCD" />
        </linearGradient>
        <linearGradient id="paint53_linear_1_750" x1="27.5735" y1="41.5348" x2="87.4841" y2="64.976"
            gradientUnits="userSpaceOnUse">
            <stop offset="0.0354" stop-color="#9F19AB" />
            <stop offset="0.2438" stop-color="#AE25B1" />
            <stop offset="0.6455" stop-color="#D744BF" />
            <stop offset="1" stop-color="#FF63CE" />
        </linearGradient>
    </defs>
</svg>